<?xml version="1.0" standalone="no"?>
<!DOCTYPE svg PUBLIC "-//W3C//DTD SVG 20010904//EN"
 "http://www.w3.org/TR/2001/REC-SVG-20010904/DTD/svg10.dtd">
<svg version="1.0" xmlns="http://www.w3.org/2000/svg"
 width="500.000000pt" height="500.000000pt" viewBox="0 0 500.000000 500.000000"
 preserveAspectRatio="xMidYMid meet">
<metadata>
Created by potrace 1.14, written by Peter Selinger 2001-2017
</metadata>
<g transform="translate(0.000000,500.000000) scale(0.100000,-0.100000)"
fill="#000000" stroke="none">
<path d="M2448 4922 c-10 -2 4 -23 44 -65 32 -34 58 -64 58 -67 0 -3 -55 -5
-122 -5 -120 -1 -243 -11 -343 -30 -16 -3 -48 -7 -70 -9 -22 -3 -40 -5 -40 -6
0 -2 -74 -8 -143 -10 -52 -3 -53 -3 -47 -29 4 -14 11 -27 16 -29 5 -2 9 -10 9
-18 0 -8 5 -14 10 -14 6 0 10 -5 10 -11 0 -6 25 -36 55 -66 59 -59 66 -73 36
-73 -11 0 -22 -4 -25 -9 -6 -8 -73 -26 -88 -23 -5 1 -8 -2 -8 -6 0 -4 -8 -8
-17 -9 -10 0 -29 -4 -43 -7 -87 -21 -221 -27 -305 -14 -64 10 -100 16 -100 18
0 1 -11 4 -25 7 -38 7 -55 11 -57 13 -2 2 -6 3 -10 4 -16 3 -79 28 -105 42
-16 9 -28 12 -28 7 0 -4 -4 -3 -8 2 -10 14 -130 74 -136 68 -2 -3 11 -31 30
-63 19 -32 34 -63 34 -68 0 -5 7 -13 16 -16 8 -3 13 -10 10 -15 -3 -5 1 -12
10 -15 8 -3 13 -10 9 -15 -3 -5 4 -13 16 -16 11 -4 18 -9 15 -12 -2 -3 6 -15
20 -28 13 -12 24 -28 24 -34 0 -7 5 -9 10 -6 6 3 10 -1 10 -9 0 -8 9 -18 20
-21 11 -3 20 -10 20 -15 0 -5 26 -26 58 -47 31 -21 59 -41 60 -45 2 -5 9 -8
17 -8 12 0 134 -69 124 -71 -2 0 -11 -2 -19 -4 -61 -12 -89 -17 -112 -18 -16
-1 -28 -4 -28 -7 0 -3 -12 -5 -27 -5 -16 1 -38 -2 -50 -7 -14 -5 -23 -4 -23 3
0 6 -5 7 -12 2 -19 -11 -228 -12 -228 0 0 5 -6 4 -13 -2 -8 -6 -17 -8 -21 -4
-4 4 -19 9 -34 10 -90 6 -112 9 -112 13 0 3 -8 6 -18 7 -22 2 -144 41 -192 61
-19 9 -41 17 -48 18 -8 1 -21 9 -30 18 -10 8 -30 20 -47 26 l-29 11 19 -23
c11 -13 30 -34 43 -47 12 -13 22 -28 22 -33 0 -5 5 -6 10 -3 6 3 10 2 10 -4 0
-13 48 -61 61 -61 6 0 7 -4 4 -10 -3 -5 1 -10 9 -10 9 0 16 -4 16 -8 0 -4 24
-26 52 -47 29 -22 57 -45 61 -52 4 -7 12 -13 18 -13 8 0 64 -35 79 -50 3 -3
11 -6 18 -8 7 -1 30 -13 50 -26 20 -13 39 -23 42 -24 3 0 19 -6 35 -13 17 -7
33 -13 38 -14 4 -2 10 -4 15 -5 4 -1 10 -2 15 -1 4 0 7 -3 7 -9 0 -6 3 -9 8
-8 13 4 113 -34 107 -41 -4 -3 -10 -6 -13 -7 -19 -1 -111 -21 -114 -24 -2 -1
-19 -4 -38 -6 -51 -6 -64 -9 -77 -17 -6 -4 -14 -3 -18 3 -4 6 -11 7 -18 3 -15
-9 -83 -14 -217 -14 -100 0 -215 6 -215 11 0 3 -106 21 -140 24 -11 0 -26 7
-33 14 -7 6 -24 12 -38 12 -13 0 -24 5 -24 11 0 6 -7 9 -15 5 -8 -3 -15 -1
-15 4 0 6 -6 10 -14 10 -7 0 -25 9 -40 21 -14 11 -26 17 -26 14 0 -13 44 -70
86 -112 23 -23 40 -44 38 -46 -2 -2 7 -10 21 -17 14 -7 25 -17 25 -22 0 -4 5
-8 10 -8 6 0 23 -11 38 -25 15 -14 44 -34 64 -44 21 -10 35 -21 31 -25 -3 -3
1 -6 10 -6 8 0 28 -7 44 -15 15 -8 51 -24 78 -35 28 -11 58 -25 68 -31 10 -5
22 -7 27 -4 5 3 11 1 15 -5 3 -5 19 -10 36 -10 16 0 29 -4 29 -9 0 -5 8 -8 18
-6 9 1 22 0 27 -4 6 -3 17 -6 25 -7 8 0 31 -4 50 -7 19 -4 49 -9 65 -12 49 -8
186 -18 245 -18 l55 0 -40 -17 c-22 -10 -43 -15 -47 -13 -5 2 -8 0 -8 -5 0 -5
-6 -9 -12 -9 -7 0 -46 -10 -87 -22 -41 -13 -83 -25 -95 -27 -138 -27 -169 -31
-286 -38 -36 -3 -67 -5 -70 -6 -4 -1 -67 0 -170 4 -19 1 -39 4 -45 7 -5 4 -22
6 -37 5 -16 -1 -28 1 -28 4 0 3 -12 6 -28 5 -15 0 -29 3 -32 7 -3 4 -17 9 -30
11 -14 3 -38 10 -54 16 -16 7 -31 9 -34 6 -5 -5 105 -115 115 -115 7 0 78 -54
81 -62 2 -5 12 -8 22 -8 10 0 20 -4 22 -8 3 -9 93 -52 108 -52 5 0 10 -5 10
-11 0 -5 4 -8 9 -4 5 3 12 1 16 -4 3 -6 12 -8 20 -4 8 3 15 -1 15 -8 0 -7 3
-10 6 -7 3 4 20 2 37 -3 18 -6 42 -12 55 -15 12 -2 34 -7 50 -10 52 -11 211
-26 257 -24 17 1 58 2 92 4 66 4 85 -8 33 -19 -17 -4 -30 -11 -30 -16 0 -6 -4
-8 -9 -5 -5 3 -20 -3 -34 -14 -14 -11 -31 -20 -39 -20 -8 0 -23 -7 -34 -15
-10 -8 -27 -15 -36 -15 -10 0 -18 -5 -18 -10 0 -6 -3 -9 -7 -9 -5 1 -10 1 -13
-1 -3 -1 -16 -3 -29 -6 -14 -2 -30 -9 -38 -15 -7 -6 -13 -8 -13 -4 0 4 -6 2
-13 -4 -8 -6 -17 -8 -20 -4 -4 3 -12 1 -19 -4 -7 -6 -38 -16 -68 -24 -30 -7
-57 -14 -60 -14 -77 -19 -162 -27 -287 -29 l-123 -1 48 -23 c54 -26 160 -62
191 -65 12 -1 21 -4 21 -7 0 -4 6 -7 13 -7 6 0 32 -4 57 -7 67 -10 160 -18
205 -19 65 0 220 12 238 18 13 5 16 0 17 -27 0 -18 1 -49 2 -68 1 -47 -11
-119 -24 -143 -8 -15 -7 -18 3 -12 9 6 10 4 3 -6 -5 -8 -9 -17 -10 -21 -1 -5
-3 -10 -4 -13 -1 -3 -3 -17 -4 -32 -1 -16 -5 -34 -9 -40 -5 -7 -6 -13 -3 -13
3 0 -1 -19 -9 -41 -8 -23 -15 -54 -15 -70 0 -16 -3 -29 -7 -30 -5 0 -15 -2
-24 -4 -8 -1 -42 -6 -75 -9 -32 -4 -79 -10 -104 -13 -66 -9 -91 -11 -132 -12
-37 -1 -56 -20 -20 -20 21 0 44 -5 57 -12 6 -4 22 -6 38 -5 15 1 27 -2 27 -7
0 -5 7 -7 15 -4 8 4 17 2 21 -4 4 -7 10 -6 19 1 7 6 16 7 19 2 3 -5 37 -9 76
-9 72 -1 82 -4 86 -26 1 -7 7 -31 13 -55 7 -24 14 -56 16 -72 2 -16 6 -33 9
-38 3 -5 8 -22 10 -38 12 -62 16 -77 37 -137 12 -34 25 -66 30 -72 5 -5 9 -17
9 -26 0 -10 3 -19 8 -21 10 -4 45 -78 49 -103 8 -50 15 -66 47 -99 18 -20 38
-36 44 -36 11 0 72 -85 72 -101 0 -5 4 -9 9 -9 5 0 12 -8 15 -17 4 -10 22 -36
41 -58 19 -22 35 -43 35 -47 0 -5 6 -8 14 -8 8 0 18 -9 21 -21 4 -11 9 -18 11
-16 3 3 25 -15 50 -39 24 -24 47 -44 49 -44 8 0 31 -20 67 -57 19 -20 45 -35
67 -39 20 -4 54 -15 75 -25 22 -10 54 -22 73 -25 23 -4 38 -15 45 -30 6 -13
15 -24 20 -24 4 0 8 -4 8 -10 0 -9 6 -18 53 -73 10 -12 28 -35 40 -50 12 -15
43 -51 69 -79 26 -28 50 -58 53 -68 3 -10 19 -22 36 -25 16 -4 38 -15 47 -24
9 -10 62 -37 117 -60 55 -23 108 -46 117 -52 10 -5 23 -9 29 -9 13 0 43 -33
67 -72 9 -16 20 -28 24 -28 4 0 8 -5 8 -11 0 -6 6 -17 13 -24 6 -8 18 -22 26
-31 12 -14 15 -13 29 18 9 18 21 38 28 43 6 6 21 25 33 43 13 18 37 40 54 49
18 8 34 19 37 23 3 4 43 23 90 41 47 17 103 47 124 66 22 18 44 33 49 33 15 0
228 224 257 271 6 9 140 67 167 72 39 7 101 48 155 105 31 33 59 57 63 54 3
-3 5 -1 5 5 0 6 20 32 46 59 74 80 80 88 101 121 11 18 23 30 26 26 4 -3 7 -1
7 6 0 7 8 23 18 36 34 45 81 119 112 178 13 26 28 47 32 47 9 0 111 213 118
245 1 2 14 34 31 70 16 36 27 70 24 75 -4 6 -2 10 3 10 6 0 15 14 21 30 5 17
8 30 5 30 -3 0 4 9 15 21 11 12 25 34 31 50 16 37 25 37 45 -3 21 -45 44 -73
51 -65 5 5 -6 53 -23 97 -4 8 -7 17 -7 20 -1 3 -5 11 -9 17 -5 7 -6 13 -2 13
3 0 -15 39 -39 88 -47 93 -121 202 -180 267 -74 81 -127 135 -132 135 -3 0
-21 15 -41 33 -55 52 -66 61 -103 87 -102 72 -175 150 -194 207 -9 25 -13 49
-11 54 3 4 1 10 -3 13 -11 7 -8 97 3 116 6 9 4 11 -4 5 -10 -6 -11 -3 -2 14 7
11 9 21 5 21 -3 0 0 7 7 17 8 9 12 17 10 17 -8 2 23 76 32 76 4 0 6 4 3 8 -3
5 3 18 14 29 10 12 17 23 15 25 -7 7 233 -7 300 -17 22 -3 56 -8 75 -10 57 -7
104 -15 122 -21 10 -3 29 -7 43 -10 49 -8 70 -13 103 -23 18 -5 36 -10 40 -11
4 0 25 -6 47 -12 22 -6 43 -11 48 -10 4 1 7 -3 7 -9 0 -5 4 -8 8 -5 5 3 20 -1
35 -9 15 -8 27 -12 27 -9 0 3 13 -4 29 -15 16 -12 36 -21 45 -21 9 0 16 -4 16
-9 0 -5 8 -12 19 -16 24 -7 55 -36 59 -53 1 -8 4 -28 5 -46 2 -17 5 -36 8 -41
3 -6 4 -40 4 -77 l-2 -67 37 37 c48 50 100 117 100 131 0 6 5 11 12 11 6 0 8
3 5 6 -4 4 3 20 14 35 11 16 17 29 13 29 -3 0 -1 6 5 13 14 18 47 122 59 184
8 48 8 190 -2 251 -4 31 -20 89 -33 122 -4 8 -7 17 -8 20 -1 3 -7 19 -14 35
-7 17 -17 40 -22 53 -5 12 -13 22 -19 22 -6 0 -9 4 -6 9 6 8 -31 63 -46 69 -5
2 -8 8 -8 14 0 12 -110 118 -123 118 -5 0 -5 6 -1 13 4 6 4 9 -1 5 -4 -4 -34
11 -66 32 -32 22 -62 40 -68 40 -5 0 -11 4 -13 8 -4 11 -211 112 -229 112 -8
0 -23 7 -33 15 -10 8 -22 12 -26 10 -4 -2 -28 4 -55 13 -33 12 -49 23 -51 37
-1 11 -6 40 -10 65 -4 25 -8 48 -8 53 -1 4 -17 22 -36 40 -19 18 -54 54 -78
80 -23 26 -45 47 -48 47 -9 0 -34 28 -34 39 0 5 -8 12 -17 15 -10 4 -32 19
-50 34 -51 43 -87 70 -96 70 -5 1 -17 10 -26 21 -10 12 -22 21 -26 21 -5 0
-22 10 -39 23 -38 28 -196 110 -196 102 0 -4 -7 1 -16 9 -8 9 -20 14 -25 11
-5 -4 -9 -1 -9 4 0 6 -6 11 -14 11 -7 0 -27 7 -42 15 -16 8 -36 15 -45 15 -8
0 -20 5 -27 12 -7 7 -12 8 -12 4 0 -5 -6 -4 -12 1 -7 6 -35 16 -63 22 -27 7
-57 15 -65 18 -21 8 -31 11 -60 17 -14 3 -36 8 -50 12 -50 11 -156 32 -205 39
-66 10 -318 23 -347 17z m-208 -1807 c21 0 43 -51 35 -83 -15 -71 -124 -48
-125 26 0 27 47 75 64 65 6 -4 18 -8 26 -8z m-570 -517 c16 -17 20 -31 16 -53
-15 -76 -111 -72 -121 4 -8 63 62 95 105 49z m1650 -108 c15 -15 19 -28 15
-52 -4 -18 -7 -33 -8 -34 -1 0 -12 -8 -25 -16 -49 -33 -111 25 -90 82 5 14 14
28 21 32 22 14 67 8 87 -12z m-950 -62 c14 -24 16 -35 7 -58 -6 -16 -18 -32
-27 -36 -26 -11 -60 -13 -60 -3 0 5 -7 9 -15 9 -16 0 -35 37 -32 61 4 24 31
56 52 61 33 7 56 -3 75 -34z m440 24 c13 -11 23 -31 25 -54 3 -30 -1 -40 -20
-52 -48 -31 -104 -8 -112 46 -4 28 21 66 49 71 13 2 26 5 29 6 4 0 17 -7 29
-17z m-1525 -69 c15 -31 15 -36 1 -58 -8 -13 -25 -26 -36 -30 -30 -9 -73 16
-81 49 -7 24 -3 33 20 56 37 37 74 31 96 -17z m720 -257 c33 -24 36 -83 4
-108 -42 -35 -110 0 -104 53 5 38 12 48 39 59 30 12 40 12 61 -4z m348 -252
c25 -9 37 -63 21 -95 -10 -21 -20 -26 -46 -26 -37 1 -53 14 -67 51 -9 21 -5
29 22 55 17 17 36 29 42 26 5 -3 18 -8 28 -11z m415 -21 c23 -23 21 -61 -5
-87 -28 -29 -44 -28 -78 4 -32 30 -32 55 2 86 28 25 54 25 81 -3z m753 -2 c31
-29 25 -92 -9 -106 -26 -12 -52 -13 -52 -3 0 5 -4 7 -9 4 -14 -9 -40 17 -44
44 -2 14 2 36 9 50 8 14 14 21 14 17 0 -5 7 -2 15 6 17 17 51 12 76 -12z
m-1933 -1 c22 -21 29 -64 14 -87 -16 -25 -63 -42 -87 -31 -26 12 -45 47 -40
74 2 11 4 25 4 32 1 7 5 11 10 8 5 -3 11 1 15 9 8 22 59 18 84 -5z m429 -319
c23 -30 16 -78 -15 -99 -24 -18 -31 -19 -59 -7 -27 12 -44 36 -48 70 -2 14 27
46 50 55 25 11 56 2 72 -19z m1093 5 c0 -8 4 -16 9 -18 23 -8 16 -79 -9 -85
-11 -3 -18 -8 -16 -12 7 -11 -36 -11 -58 1 -28 14 -36 28 -36 59 0 37 34 69
75 69 24 0 35 -5 35 -14z m-554 -46 c13 0 34 -43 34 -69 0 -21 -38 -64 -50
-56 -5 3 -11 1 -15 -5 -8 -13 -62 27 -68 50 -6 23 20 83 33 75 5 -3 10 -1 10
6 0 7 9 9 23 5 12 -3 27 -6 33 -6z"/>
</g>
</svg>
