<?xml version="1.0" encoding="utf-8" ?>
<svg xmlns="http://www.w3.org/2000/svg" xmlns:xlink="http://www.w3.org/1999/xlink" width="512" height="512">
	<path fill="#E5271B" transform="scale(0.5 0.5)" d="M122.212 471.112C122.804 471.315 123.379 471.587 123.955 471.833C125.467 474.941 124.299 479.515 123.854 482.787C123.439 482.491 123.061 482.04 122.698 481.678C121.599 478.124 121.899 474.749 122.212 471.112Z"/>
	<path fill="#E5271B" transform="scale(0.5 0.5)" d="M123.085 452.264C124.346 453.854 124.218 456.278 124.221 458.303C124.225 460.708 124.478 463.09 122.724 464.844C122.579 464.615 122.254 464.117 122.162 463.902C120.848 460.833 121.795 455.204 123.085 452.264Z"/>
	<path fill="#E5271B" transform="scale(0.5 0.5)" d="M113.839 466.18C116.065 466.078 117.444 465.89 119.187 467.427L119.075 468.28C117.372 469.404 116.625 469.121 114.624 469.058C112.318 469.027 110.11 469.18 107.961 468.233L107.925 467.559C109.841 466.52 111.714 466.414 113.839 466.18Z"/>
	<path fill="#E5271B" transform="scale(0.5 0.5)" d="M125.784 466.559C129.227 466.45 135.752 465.563 138.613 467.418L138.821 468.631C135.491 469.423 131.166 470.013 127.863 468.917C126.405 468.433 126.416 467.847 125.784 466.559Z"/>
	<path fill="#0B0166" transform="scale(0.5 0.5)" d="M946.498 463.482C949.097 463.582 953.984 463.361 956.212 464.755C957.625 465.639 957.565 466 957.959 467.549C954.631 468.286 950.521 468.715 947.31 467.523C946.17 466.172 946.507 465.214 946.498 463.482Z"/>
	<path fill="#0B0166" transform="scale(0.5 0.5)" d="M941.043 468.539C941.649 468.508 942.441 468.408 943.056 468.479C943.756 468.559 944.252 468.573 944.616 469.203C946.293 472.106 945.005 477.117 944.291 480.219C943.24 480.62 943.391 480.521 942.401 480.253C940.395 477.458 941.05 471.907 941.043 468.539Z"/>
	<path fill="#0B0166" transform="scale(0.5 0.5)" d="M934.289 463.658C935.703 463.55 936.829 463.524 938.242 463.759C939.307 464.645 939.39 464.7 939.744 466.03L939.016 467.279C937.17 468.189 935.822 467.884 933.828 467.784C932.599 467.743 931.344 467.721 930.121 467.584C928.904 467.449 927.96 467.179 927.15 466.212L927.701 465.38C929.894 464.254 931.889 463.995 934.289 463.658Z"/>
	<path fill="#E5271B" transform="scale(0.5 0.5)" d="M116.341 593.708C116.492 593.822 116.653 593.923 116.794 594.049C117.891 595.031 117.876 596.513 118.043 597.874C118.389 600.71 121.867 598.933 123.605 600.509L123.227 601.351C121.713 601.76 120.242 602.03 118.69 602.254C117.417 604.023 118.278 606.651 117.013 608.785C116.666 608.505 116.384 608.081 116.101 607.735C116.11 606.377 116.328 604.454 116.003 603.163C115.556 601.388 111.874 601.979 110.214 600.778C110.895 599.935 113.992 600.043 115.319 599.691C116.466 598.315 116.188 595.533 116.341 593.708Z"/>
	<path fill="#0B0166" transform="scale(0.5 0.5)" d="M943.601 449.384C943.904 449.703 944.012 449.775 944.231 450.192C945.606 452.802 946.143 458.783 945.016 461.523C944.503 462.769 943.745 462.741 942.562 463.186C942.363 463.036 942.152 462.901 941.965 462.737C940.671 461.598 940.536 460.347 940.495 458.716C940.41 455.391 941.31 451.846 943.601 449.384Z"/>
	<path fill="#0B0166" transform="scale(0.5 0.5)" d="M124.443 754.604C125.54 755.023 125.73 755.135 126.477 756.035C126.401 757.328 126.403 758.181 126.773 759.449C128.361 760.753 129.855 760.237 131.836 760.694C132.396 761.619 132.539 761.453 132.305 762.587C130.743 763.474 128.664 763.413 126.892 763.551C126.485 765.775 125.989 767.854 125.259 769.994C124.314 768.276 124.367 766.032 123.448 764.423C122.456 762.686 119.297 763.98 117.679 762.487L117.79 761.582C119.51 760.544 121.629 760.482 123.587 760.225C123.794 758.351 124.156 756.469 124.443 754.604Z"/>
	<path fill="#E5271B" transform="scale(0.5 0.5)" d="M213.795 120.404C216.018 120.9 218.778 121.791 220.101 123.811C220.977 125.149 221.313 126.648 220.869 128.202C220.17 130.644 218.143 131.686 216.045 132.791C213.738 132.54 211.071 131.961 209.601 129.952C208.662 128.668 208.429 127.33 208.802 125.781C209.46 123.05 211.559 121.812 213.795 120.404Z"/>
	<path fill="#ED5D60" transform="scale(0.5 0.5)" d="M213.278 123.269C214.262 123.448 215.392 123.759 216.263 124.266C217.284 124.861 217.92 125.781 218.064 126.964C218.241 128.419 217.248 129.71 216.491 130.851C216.014 130.682 215.533 130.519 215.066 130.323C213.482 129.66 212.471 129.045 211.782 127.408C211.653 125.624 212.367 124.704 213.278 123.269Z"/>
	<path fill="#1ECAEA" transform="scale(0.5 0.5)" d="M748.558 87.5133C749.311 87.5322 750.047 87.5653 750.787 87.716C752.966 88.1596 754.88 89.3588 756.015 91.306C756.84 92.7226 756.968 94.4847 756.484 96.0383C755.703 98.5399 754.112 99.5906 751.914 100.808C751.044 100.857 750.243 100.886 749.379 100.74C747.404 100.407 745.485 99.5818 744.348 97.8543C743.47 96.5204 743.256 94.8523 743.596 93.3107C744.245 90.3716 746.131 89.0214 748.558 87.5133Z"/>
	<path fill="#FAA15C" transform="scale(0.5 0.5)" d="M884.032 514.581L889.583 514.493L889.652 526.387C892.47 526.033 895.244 525.716 898.076 526.197C900.192 526.556 902.433 527.22 903.69 529.066C903.635 529.824 903.79 530.214 903.202 530.781C900.144 533.724 893.394 532.699 889.444 532.531C889.475 536.315 889.402 540.093 889.32 543.876C888.738 544.721 887.643 545.366 886.823 545.962C885.829 545.872 885.625 546.076 884.909 545.232C882.834 542.789 883.693 535.758 883.791 532.57C882.12 532.587 880.441 532.62 878.77 532.571C876.343 532.499 874.519 532.044 872.817 530.212C872.788 529.413 872.569 529.128 873.172 528.506C875.625 525.974 880.39 526.685 883.578 526.801C883.57 522.716 883.482 518.638 884.032 514.581Z"/>
	<path fill="#0B0166" transform="scale(0.5 0.5)" d="M148.512 144.523C149.874 144.091 150.375 143.929 151.661 144.671C157.952 148.303 209.866 234.268 213.702 245.393C211.638 243.367 210.309 240.52 208.396 238.297C204.93 229.914 155.155 149.885 149.534 145.332L149.016 148.243C141.957 160.416 127.797 188.165 118.117 196.4C121.627 189.007 126.309 181.865 130.396 174.759C136.255 164.571 141.757 154.158 148.512 144.523Z"/>
	<path fill="#0B0166" transform="scale(0.5 0.5)" d="M135.696 274.454C139.992 273.678 143.996 274.141 147.618 276.743C150.513 278.822 152.501 282.003 153.043 285.533C153.609 289.221 152.517 293.257 150.18 296.163C150.06 296.312 149.925 296.448 149.798 296.59C148.155 298.065 146.554 299.345 144.502 300.213C141.057 301.67 137.312 301.778 133.872 300.245C130.28 298.645 127.615 295.519 126.331 291.832C125.106 288.313 125.173 284.36 126.932 281.027C128.807 277.473 132.011 275.667 135.696 274.454Z"/>
	<path fill="#ED5D60" transform="scale(0.5 0.5)" d="M135.351 276.806C139.361 276.031 142.574 276.003 146.04 278.436C148.526 280.182 150.198 282.954 150.586 285.968C151.01 289.264 149.94 292.369 147.86 294.907C147.635 295.181 147.402 295.447 147.169 295.714C145.688 296.776 144.207 297.68 142.435 298.175C139.467 299.003 136.317 298.801 133.646 297.197C129.867 294.928 128.541 291.37 127.452 287.365C129.019 282.007 130.386 279.647 135.351 276.806Z"/>
	<path fill="#FEFEFE" transform="scale(0.5 0.5)" d="M149.534 145.332C155.155 149.885 204.93 229.914 208.396 238.297C200.837 234.769 158.782 179.551 151.087 169.487C150.758 162.368 151.351 155.06 149.016 148.243L149.534 145.332Z"/>
	<path fill="#0B0166" transform="scale(0.5 0.5)" d="M911.021 576.151C914.38 576.406 917.576 577.108 920.502 578.844C924.558 581.25 927.641 585.288 928.652 589.918C929.581 594.178 928.691 598.746 926.253 602.359C923.157 606.946 918.568 608.866 913.331 609.853C909.619 609.589 906.264 609.166 903.058 607.112C899.279 604.692 896.685 600.726 895.776 596.349C894.874 592.01 895.721 587.48 898.196 583.796C901.3 579.174 905.727 577.191 911.021 576.151Z"/>
	<path fill="#FBBB26" transform="scale(0.5 0.5)" d="M913.175 579.528C918.08 581.14 922.319 582.973 924.669 587.963C926.144 591.095 926.234 594.91 924.944 598.117C923.164 602.539 919.664 604.664 915.447 606.384C914.329 602.812 917.154 597.993 916.869 594.147C916.513 589.345 914.344 584.859 913.312 580.172L913.175 579.528Z"/>
	<path fill="#FAA15C" transform="scale(0.5 0.5)" d="M915.447 606.384C911.756 607.188 908.33 606.72 905.111 604.708C901.821 602.653 899.332 599.226 898.586 595.399C897.922 591.992 898.653 588.499 900.704 585.686C903.871 581.343 908.219 580.382 913.175 579.528L913.312 580.172C914.344 584.859 916.513 589.345 916.869 594.147C917.154 597.993 914.329 602.812 915.447 606.384Z"/>
	<path fill="#0B0166" transform="scale(0.5 0.5)" d="M109.063 526.591C111.755 526.558 114.687 527.094 117.175 528.115C121.549 529.911 124.847 533.398 126.482 537.826C128.132 542.296 128.1 547.346 125.985 551.659C123.215 557.307 118.491 559.432 112.858 561.292C109.365 561.128 106.16 560.793 103.005 559.171C98.6889 556.952 95.3066 553.148 93.996 548.433C92.7364 543.901 93.4841 538.818 95.9558 534.821C99.0181 529.87 103.64 527.865 109.063 526.591Z"/>
	<path fill="#83C1F1" transform="scale(0.5 0.5)" d="M107.749 529.553C110.582 529.455 113.333 529.67 115.931 530.895C119.495 532.574 122.263 535.685 123.579 539.392C124.857 542.993 124.696 547.026 122.94 550.441C120.932 554.347 117.465 556.635 113.383 557.964C110.923 558.04 108.609 558.033 106.252 557.228C102.636 555.992 99.5858 553.484 97.9751 549.979C96.3719 546.491 96.1748 542.432 97.565 538.841C99.4547 533.959 103.201 531.563 107.749 529.553Z"/>
	<path fill="#E5271B" transform="scale(0.5 0.5)" d="M151.53 657.882L147.291 704.437C118.774 709.053 89.7696 711.349 61.3947 716.853C88.7158 697.854 116.786 679.172 145.146 661.761C147.239 660.385 149.3 659.033 151.53 657.882Z"/>
	<path fill="#FEFEFE" transform="scale(0.5 0.5)" d="M146.549 662.325L148.77 661.676L149.314 661.982C149.383 665.694 148.717 669.408 148.384 673.102C147.505 682.864 146.657 692.957 144.645 702.556C139.898 702.405 134.685 703.893 129.95 704.594C131.185 699.901 133.333 695.132 134.986 690.548C138.04 682.079 140.945 673.557 143.866 665.042L146.549 662.325Z"/>
	<path fill="#FBBB26" transform="scale(0.5 0.5)" d="M143.866 665.042C140.945 673.557 138.04 682.079 134.986 690.548C133.333 695.132 131.185 699.901 129.95 704.594C110.072 707.707 90.0883 711.152 70.0711 713.144L110.532 686.311C121.486 679.004 132.314 671.385 143.866 665.042Z"/>
	<path fill="#0B0166" transform="scale(0.5 0.5)" d="M827.187 72.257L829.762 81.5645C832.084 90.4272 834.838 99.1522 837.343 107.961C838.554 111.138 840.023 114.28 839.572 117.751C839.202 118.304 839.014 118.616 838.458 119C835.755 121.383 832.985 123.608 830.112 125.784C808.196 141.494 788.192 160.167 766.931 176.816C769.499 171.071 772.949 165.481 776.057 160.004L792.764 130.916C801.392 115.889 809.282 99.9768 818.728 85.4731C820.165 80.9547 824.259 75.9572 827.187 72.257Z"/>
	<path fill="#FEFEFE" transform="scale(0.5 0.5)" d="M823.948 81.9005C824.644 80.6438 825.26 79.9542 826.305 79.0111C828.137 83.4346 837.066 113.359 837.086 117.154L836.931 117.555C834.053 119.599 831.182 121.874 828.129 123.637C824.039 110.844 824.026 95.2759 823.948 81.9005Z"/>
	<path fill="#FBBB26" transform="scale(0.5 0.5)" d="M818.746 90C820.634 87.4495 822.262 84.5915 823.948 81.9005C824.026 95.2759 824.039 110.844 828.129 123.637L827.899 124.118C820.329 129.5 813.634 135.549 806.501 141.455C795.859 150.267 785.118 159.014 774.762 168.161C777.645 161.726 781.555 155.743 784.995 149.592C794.157 133.207 803.807 117.171 812.653 100.596C814.573 96.9997 817.059 93.7078 818.746 90Z"/>
	<path fill="#FBBB26" transform="scale(0.5 0.5)" d="M94.4575 357.953C99.4877 360.76 143.067 419.132 148.67 428.002C139.235 425.023 130.004 419.473 121.163 415.022C98.3285 403.326 74.7252 392.273 52.7545 379.039C65.349 370.176 80.3791 364.078 94.4575 357.953Z"/>
	<path fill="#FEFEFE" transform="scale(0.5 0.5)" d="M94.253 359.891C95.7363 360.307 96.7508 361.56 97.7409 362.668C105.375 371.215 111.931 381.008 118.84 390.149C126.756 400.623 135.097 410.711 142.795 421.358C140.122 419.401 137.626 417.317 135.137 415.131C125.957 405.885 116.599 396.555 106.648 388.136C98.6005 381.328 89.9942 375.081 81.5408 368.789C86.4229 366.258 90.2228 363.641 94.253 359.891Z"/>
	<path fill="#FBBB26" transform="scale(0.5 0.5)" d="M118.117 196.4C127.797 188.165 141.957 160.416 149.016 148.243C151.351 155.06 150.758 162.368 151.087 169.487C158.782 179.551 200.837 234.769 208.396 238.297C210.309 240.52 211.638 243.367 213.702 245.393L213.998 246.723L213.294 247.356C207.725 246.653 196.791 238.47 191.165 235.51C178.481 228.837 165.903 222.077 153.06 215.698C143.615 211.006 133.769 206.699 124.54 201.63C122.452 200.483 119.479 199.009 117.91 197.263L118.117 196.4Z"/>
	<path fill="#0B0166" transform="scale(0.5 0.5)" d="M930.029 146.57C930.935 146.963 930.843 147.002 931.364 147.757C931.435 150.098 930.8 152.338 930.149 154.572C928.998 158.518 927.355 162.377 926.057 166.291L916.812 194.936C911.085 212.944 906.035 231.204 899.917 249.079C898.336 253.697 896.838 258.265 894.403 262.521C884.384 259.768 872.459 254.027 862.443 250.133L791.868 222.75C779.144 217.685 759.774 212.088 748.615 205.442C755.327 203.625 762.036 200.747 768.612 198.432C777.983 195.133 787.465 192.15 796.92 189.1L930.029 146.57Z"/>
	<path fill="#FEFEFE" transform="scale(0.5 0.5)" d="M762.043 204.772C769.637 201.115 777.988 198.729 785.981 196.085L827.634 182.594C860.864 171.787 894.024 159.192 927.98 150.857C924.936 159.862 922.147 168.97 919.215 178.012C904.909 180.175 890.755 183.135 876.516 185.683L805.765 198.046C793.121 200.288 780.303 203.327 767.58 204.923C765.809 205.145 763.692 205.561 762.043 204.772Z"/>
	<path fill="#83C1F1" transform="scale(0.5 0.5)" d="M919.215 178.012C910.041 204.765 902.985 232.338 893.187 258.837C882.381 254.235 871.25 250.247 860.292 246.006L798.89 222.164L774.633 212.456C770.791 210.907 766.682 209.577 762.967 207.771C761.837 207.221 761.024 206.877 760.473 205.706C761.004 205.331 761.429 204.997 762.043 204.772C763.692 205.561 765.809 205.145 767.58 204.923C780.303 203.327 793.121 200.288 805.765 198.046L876.516 185.683C890.755 183.135 904.909 180.175 919.215 178.012Z"/>
	<path fill="#0B0166" transform="scale(0.5 0.5)" d="M670.983 123.25C681.925 123.069 695.131 122.309 705.293 126.858C714.289 130.885 721.973 139.03 725.454 148.264C726.61 151.33 727.151 154.469 727.377 157.729C727.843 164.466 727.603 171.311 727.664 178.067L727.914 219.104L728.033 249.164C728.053 255.347 728.374 261.751 727.788 267.905C727.373 272.272 725.698 276.073 723.917 280.015C740.106 279.784 750.708 279.767 766.02 285.891C772.407 282.672 778.867 279.586 785.653 277.292C814.064 267.691 846.106 267.781 873.242 281.414C898.114 293.91 917.695 316.785 926.419 343.172C935.262 369.917 933.477 399.992 920.739 425.213C906.729 452.953 880.986 471.429 851.955 480.979L851.975 641.41C861.481 641.568 867.254 644.249 875.035 649.573L887.679 649.454C897.31 649.382 907.982 648.536 915.322 656.075C918.861 659.711 920.743 664.3 921.433 669.284C922.523 677.165 921.959 685.562 921.953 693.524L922.002 732.069L921.878 868.97C921.888 879.034 921.097 887.321 913.53 894.794C909.47 898.803 904.868 900.483 899.247 901.073C885.951 902.469 871.783 901.404 858.383 901.43L774.254 901.506L446.75 898.998L265.51 898.99L207.61 899.008C197.592 899.018 187.488 899.632 177.492 898.956C171.735 898.567 166.889 897.967 161.779 895.077C153.485 890.385 147.612 882.458 145.099 873.301C143.282 866.678 143.375 860.519 145.443 853.97C149.84 840.046 159.317 825.634 166.205 812.625C182.174 782.466 198.173 752.345 214.992 722.647C203.493 719.567 193.675 715.752 185.02 707.244C175.33 697.719 168.888 685.336 166.584 671.967C164.468 659.689 165.526 646.31 165.558 633.841L165.615 573.544L165.365 341.534C165.192 323.405 165.517 307.14 179.12 293.447C193.027 279.447 210.202 278.965 228.819 278.971L254.035 279.019L254.022 201.37C253.979 185.153 252.019 167.014 255.317 151.103C256.478 145.503 260.323 139.186 264.297 135.106C270.34 128.9 278.995 124.924 287.532 123.783C297.123 122.502 309.901 123.65 319.883 123.609L397.899 123.545C488.91 123.498 579.981 124.312 670.983 123.25ZM319.81 732.483C324.987 743.777 331.178 754.721 337.012 765.691L359.983 809.142C368.385 824.868 380.605 843.14 383.74 860.453C397.236 858.109 408.64 854.17 418.526 844.339C430.347 832.435 432.727 821.08 432.676 804.684C432.64 792.987 432.365 781.288 432.514 769.591C432.672 757.155 433.343 744.809 432.605 732.368C395.017 732.898 357.402 732.318 319.81 732.483ZM580.011 732.467C579.998 747.458 580.098 762.46 579.904 777.449C579.701 793.069 577.754 813.668 581.699 828.63C583.945 837.152 588.493 844.864 594.728 851.083C600.829 857.168 609.282 862.356 617.833 863.941C618.014 863.712 618.271 863.528 618.375 863.256C619.14 861.243 618.585 746.168 618.554 732.559L580.011 732.467Z"/>
	<path fill="#FEFEFE" transform="scale(0.5 0.5)" d="M715.817 253.993L724.404 253.995C724.414 256.976 724.516 259.998 724.35 262.972C723.163 263.032 721.969 263.091 720.78 263.049C719.171 262.994 717.608 262.763 716.573 261.363C715.138 259.422 715.693 256.26 715.817 253.993Z"/>
	<path fill="#FEFEFE" transform="scale(0.5 0.5)" d="M707.09 132.162C715.357 137.803 721.148 144.56 723.078 154.649C723.979 159.356 724.059 164.235 724.058 169.013L717.841 169.016C717.654 159.71 717.165 151.196 712.798 142.781C711.031 139.376 708.937 136.173 707.326 132.683L707.09 132.162Z"/>
	<path fill="#ED5D60" transform="scale(0.5 0.5)" d="M774.28 469.693C776.319 471.266 778.327 472.799 780.529 474.145C780.496 479.389 780.555 484.649 780.198 489.883C776.787 486.112 762.313 480.544 757.325 479.216C762.575 475.505 768.445 472.372 774.28 469.693Z"/>
	<path fill="#ED5D60" transform="scale(0.5 0.5)" d="M703.788 441.115C711.782 440.872 719.787 440.982 727.784 441.025L716.629 468.089C711.241 459.583 707.409 450.468 703.788 441.115Z"/>
	<path fill="#801657" transform="scale(0.5 0.5)" d="M287.997 253.482L302.42 253.478C302.478 265.058 303.251 270.709 311.252 279.523C303.662 280.294 295.82 280 288.201 279.988C288.474 271.158 288.091 262.315 287.997 253.482Z"/>
	<path fill="#FEFEFE" transform="scale(0.5 0.5)" d="M717.828 172.659L724.262 172.765L724.311 250.255L717.648 250.325C717.929 233.731 717.832 217.025 717.627 200.431C717.519 191.695 715.708 181.043 717.828 172.659Z"/>
	<path fill="#ED5D60" transform="scale(0.5 0.5)" d="M706.839 504.48C714.516 499.899 722.857 496.617 730.88 492.72C738.39 489.072 745.574 484.806 753.141 481.258C753.406 489.107 753.976 497.167 753.61 505.014C738.088 504.035 722.412 505.357 706.839 504.48Z"/>
	<path fill="#156EA1" transform="scale(0.5 0.5)" d="M784.465 476.038C808.488 483.775 823.761 487.371 849.031 482.088C848.818 488.084 849.15 494.154 848.577 500.124C848.353 495.546 848.378 490.979 848.399 486.397C827.444 495.25 806.611 493.774 784.568 491.822C784.589 496.46 785.105 501.754 784.083 506.283C783.97 496.198 784.486 486.126 784.465 476.038Z"/>
	<path fill="#801657" transform="scale(0.5 0.5)" d="M436.271 732.288C447.816 732.111 459.439 732.472 470.995 732.477L471.007 750.493C459.524 750.635 448.059 750.996 436.573 750.969C436.586 758.25 437.484 809.581 436.148 812.377C435.774 795.539 436.119 778.634 436.1 761.788C436.09 752.115 435.205 741.884 436.271 732.288Z"/>
	<path fill="#FEFEFE" transform="scale(0.5 0.5)" d="M878.198 652.503C888.434 652.394 904.036 650.313 912.293 657.546C916.977 661.65 918.055 667.503 918.529 673.384C913.95 673.295 909.432 673.783 904.865 673.915C898.22 674.108 891.558 674.045 884.912 673.998C884.455 665.726 882.649 659.534 878.198 652.503Z"/>
	<path fill="#ED5D60" transform="scale(0.5 0.5)" d="M695.174 387.999L709.753 388.016C713.223 409.329 717.034 417.743 726.502 436.714C717.504 436.785 708.406 436.209 699.436 436.555C698.662 430.717 696.834 424.979 695.614 419.216C693.387 408.698 693.884 398.582 695.174 387.999Z"/>
	<path fill="#D01349" transform="scale(0.5 0.5)" d="M288.97 127.176C294.448 126.763 300.023 126.997 305.516 127.033C301.602 129.125 298.189 131.479 295.032 134.622C285.379 144.234 284.248 155.797 284.263 168.807L275.456 168.513L257.485 168.487C257.294 158.429 258.804 148.474 265.044 140.285C270.9 132.602 279.537 128.429 288.97 127.176Z"/>
	<path fill="#FAA15C" transform="scale(0.5 0.5)" d="M288.309 172.319L306.667 172.271C306.894 179.769 304.929 189.351 304.376 197.18C303.128 214.815 302.609 232.307 302.72 249.985L287.98 250.011C288.522 224.121 288.326 198.216 288.309 172.319Z"/>
	<path fill="#D01349" transform="scale(0.5 0.5)" d="M383.714 869.682C399.271 869.77 415.015 869.163 430.536 870.053C428.112 873.863 425.889 877.571 426.079 882.286C426.312 888.075 430.1 892.032 434.077 895.75L420.232 895.786C401.842 895.919 383.565 895.174 365.166 895.982C366.743 895.231 368.301 894.362 369.784 893.437C378.731 887.856 381.544 879.364 383.714 869.682Z"/>
	<path fill="#0C4896" transform="scale(0.5 0.5)" d="M918.503 858.458C918.557 869.379 919.827 883.838 911.215 892.15C901.747 901.289 881.184 897.678 868.906 897.453C876.611 892.64 882.514 887.347 884.695 878.049C886.172 871.755 885.713 864.852 885.405 858.437L918.503 858.458Z"/>
	<path fill="#FEFEFE" transform="scale(0.5 0.5)" d="M258.847 673.431C268.443 672.253 276.373 673.97 284.108 679.998C287.683 682.783 290.493 687.256 292.805 691.11C297.134 698.324 300.793 705.953 304.736 713.381L330.152 761.502L359.879 817.066C364.882 826.349 370.313 835.442 374.933 844.922C377.101 849.373 379.856 854.695 380.283 859.695C381.048 868.636 379.484 878.727 373.457 885.754C371.569 887.956 369.142 889.987 366.382 890.965C368.147 886.494 370.907 882.377 372.721 877.879C376.687 868.045 374.849 860.945 370.81 851.676C367.527 844.142 363.161 837.108 359.173 829.934C354.602 821.709 350.22 813.377 345.843 805.048L301.87 721.762C296.729 711.98 289.612 694.272 282.992 686.709C275.921 678.632 268.779 677.357 259.339 673.628L258.847 673.431Z"/>
	<path fill="#FEFEFE" transform="scale(0.5 0.5)" d="M817.512 274.199C845.448 272.016 872.101 280.476 893.426 298.79C913.454 315.989 926.801 342.843 928.596 369.165C930.451 396.359 921.978 423.408 903.962 444.026C894.778 454.538 884.463 462.423 872.157 468.913C872.978 466.76 890.5 453.017 893.908 449.318C899.985 442.72 905.083 434.94 908.949 426.858C921.438 400.755 923.982 370.179 914.201 342.732C902.562 310.067 874.336 286.376 840.955 278.159C835.48 276.811 821.605 276.431 818.143 274.57C817.928 274.454 817.722 274.323 817.512 274.199Z"/>
	<path fill="#D01349" transform="scale(0.5 0.5)" d="M475 732.478L542.667 732.504C553.757 732.488 565.53 731.231 576.504 733C576.494 738.651 576.37 744.326 576.558 749.974L571.899 750.064L571.597 750.007C563.527 751.919 533.522 750.261 523.477 750.074C507.331 749.773 491.146 749.979 474.995 749.99L475 732.478Z"/>
	<path fill="#D01349" transform="scale(0.5 0.5)" d="M576.504 733C576.494 738.651 576.37 744.326 576.558 749.974L571.899 750.064L571.597 750.007C571.718 744.807 570.533 738.206 571.968 733.269L576.504 733Z"/>
	<path fill="#D01349" transform="scale(0.5 0.5)" d="M732.661 438.279C721.815 424.359 715.074 406.351 713.509 388.813C711.095 361.771 718.909 334.272 736.414 313.372C748.397 299.064 775.695 280.605 794.812 278.866C794.661 278.97 794.512 279.077 794.36 279.179C787.877 283.499 780.01 285.605 773.362 289.909C750.378 304.786 734.248 332.452 728.667 358.807C724.104 380.354 727.01 401.855 736.478 421.688C739.616 428.262 743.402 434.35 746.854 440.744C741.933 448.957 719.977 487.023 718.893 493.981C715.105 495.264 711.268 498.085 707.649 499.947C715.677 479.266 724.753 459.026 732.661 438.279Z"/>
	<path fill="#FAA15C" transform="scale(0.5 0.5)" d="M257.71 172.5C266.441 171.781 275.541 172.276 284.312 172.33L284.311 246.581C284.316 255.451 285.355 271.532 283.846 279.515C274.983 279.578 266.118 279.38 257.257 279.238L257.527 206.721C257.513 197.222 256.383 180.857 257.71 172.5Z"/>
	<path fill="#D01349" transform="scale(0.5 0.5)" d="M436.573 750.969C448.059 750.996 459.524 750.635 471.007 750.493L471.022 793.443C471.053 806.353 472.708 820.409 469.207 832.961C467.042 840.723 462.71 847.611 457.065 853.322C444.217 866.316 430.924 866.282 413.809 866.269C403.144 866.26 391.862 866.985 381.297 865.654C381.47 865.576 381.642 865.495 381.817 865.42C386.956 863.213 392.73 862.569 398.058 860.865C413.518 855.922 426.496 845.219 432.645 829.997C434.928 824.347 435.789 818.426 436.148 812.377C437.484 809.581 436.586 758.25 436.573 750.969Z"/>
	<path fill="#ED5D60" transform="scale(0.5 0.5)" d="M442.142 869.56C476.016 868.941 509.968 869.503 543.849 869.685C568.72 869.818 593.614 869.416 618.48 869.816C618.428 881.105 622.287 887.289 629.519 895.503L616.75 895.512L500.05 895.496L465.868 895.507C459.37 895.542 452.787 896.005 446.299 895.646C443.019 895.464 439.856 894.929 436.933 893.339C433.581 891.515 430.939 888.642 429.974 884.892C429.212 881.931 429.67 878.81 431.266 876.201C433.878 871.932 437.559 870.642 442.142 869.56Z"/>
	<path fill="#1EAD9E" transform="scale(0.5 0.5)" d="M619.839 645.235C625.554 645.198 631.276 645.29 636.992 645.326C633.992 647.23 630.991 649.357 628.46 651.86C615.629 664.552 618.386 682.476 618.648 698.908C618.808 708.941 618.765 718.979 618.748 729.013L546.375 729.023C540.443 728.997 534.519 728.824 528.589 728.649C531.289 720.587 535.487 713.018 539.111 705.337L558.347 664.688C561.314 658.468 565.222 652.001 567.305 645.469C584.806 645.496 602.346 645.755 619.839 645.235Z"/>
	<path fill="#83C1F1" transform="scale(0.5 0.5)" d="M918.529 673.384L918.503 858.458L885.405 858.437C884.021 851.288 884.874 843.396 884.947 836.125L885.001 806.946L884.912 673.998C891.558 674.045 898.22 674.108 904.865 673.915C909.432 673.783 913.95 673.295 918.529 673.384Z"/>
	<path fill="#801657" transform="scale(0.5 0.5)" d="M396.388 777.701C399.22 777.487 402.288 777.062 405.114 777.449C406.848 777.686 407.81 778.052 408.849 779.458C405.886 780.261 400.495 780.922 397.62 779.737C396.803 779.4 396.708 778.468 396.388 777.701Z"/>
	<path fill="#801657" transform="scale(0.5 0.5)" d="M379.431 777.211C382.033 777.098 387.874 776.218 389.94 778.006C389.724 779.372 389.499 779.303 388.379 780.157C384.925 780.525 381.71 780.246 378.508 778.831L378.361 778.048L379.431 777.211Z"/>
	<path fill="#D01349" transform="scale(0.5 0.5)" d="M393.125 763.266L394.446 764.306C396.098 767.813 395.149 772.179 394.788 775.894C394.029 775.712 393.32 775.485 392.581 775.237C392.271 774.709 392.245 774.719 392.026 774.031C391.08 771.056 391.738 766.034 393.125 763.266Z"/>
	<path fill="#1EAD9E" transform="scale(0.5 0.5)" d="M784.568 491.822C806.611 493.774 827.444 495.25 848.399 486.397C848.378 490.979 848.353 495.546 848.577 500.124L848.487 641.715L784.008 641.717L784.083 506.283C785.105 501.754 784.589 496.46 784.568 491.822Z"/>
	<path fill="#FEFEFE" transform="scale(0.5 0.5)" d="M828.48 588.615C828.752 588.69 829.027 588.758 829.297 588.84C830.547 589.219 831.676 590.156 832.102 591.431C832.837 593.626 831.635 595.932 830.72 597.858C829.449 597.283 828.189 596.762 827.497 595.453C826.383 593.347 827.674 590.593 828.48 588.615Z"/>
	<path fill="#FEFEFE" transform="scale(0.5 0.5)" d="M799.294 591.612C799.88 591.754 800.471 591.895 801.048 592.072C802.567 592.537 803.136 593.124 803.902 594.486C804.138 596.696 803.297 598.67 802.63 600.747C801.065 600.236 799.126 599.713 798.339 598.108C797.379 596.151 798.638 593.524 799.294 591.612Z"/>
	<path fill="#FEFEFE" transform="scale(0.5 0.5)" d="M803.178 499.733C809.101 499.716 818.51 498.159 823.166 502.387L823.2 503.285C820.966 505.339 818.564 505.086 815.715 505.224C810.887 505.194 805.604 505.791 800.833 505.278C799.09 505.09 797.993 504.637 796.858 503.24C796.526 501.972 796.33 501.755 796.816 500.563C798.592 499.522 801.156 499.783 803.178 499.733Z"/>
	<path fill="#FEFEFE" transform="scale(0.5 0.5)" d="M826.584 545.887C828.309 546.026 829.342 546.094 830.697 547.183C832.421 552.175 832.042 573.537 830.698 578.967C828.917 578.823 827.795 578.548 826.546 577.238C824.546 569.81 825.325 553.628 826.584 545.887Z"/>
	<path fill="#ED5D60" transform="scale(0.5 0.5)" d="M302.42 253.478L555.066 253.474C608.645 253.469 662.248 253.029 715.817 253.993C715.693 256.26 715.138 259.422 716.573 261.363C717.608 262.763 719.171 262.994 720.78 263.049C721.969 263.091 723.163 263.032 724.35 262.972C723.25 269.581 721.732 274.71 717.307 279.979L450.987 279.993L363.359 280.003C345.968 280.009 328.62 280.598 311.252 279.523C303.251 270.709 302.478 265.058 302.42 253.478Z"/>
	<path fill="#ED5D60" transform="scale(0.5 0.5)" d="M571.597 750.007L571.899 750.064L576.558 749.974C576.767 768.248 576.766 786.561 576.396 804.832L576.267 810.463C577.037 830.807 581.643 841.94 595.581 856.891L595.915 857.147C601.124 861.072 606.526 863.798 612.438 866.475C597.53 866.751 582.554 866.082 567.638 866.021L526.635 866.253C499.363 866.215 472.127 865.852 444.849 866.314C450.407 863.107 455.662 859.52 460.223 854.974C477.939 837.318 475.093 815.258 475.012 792.362L474.995 749.99C491.146 749.979 507.331 749.773 523.477 750.074C533.522 750.261 563.527 751.919 571.597 750.007Z"/>
	<path fill="#FEFEFE" transform="scale(0.5 0.5)" d="M564.322 845.478C564.919 845.703 565.342 845.837 565.91 846.174C567.073 846.864 567.337 847.751 567.661 848.971C567.356 850.67 566.765 851.407 565.631 852.683C565.401 852.571 565.167 852.467 564.941 852.346C563.305 851.47 562.781 850.835 562.261 849.059C562.603 847.419 563.2 846.699 564.322 845.478Z"/>
	<path fill="#FEFEFE" transform="scale(0.5 0.5)" d="M564.4 809.169C565.401 809.523 566.112 809.896 566.971 810.519C567.79 812.122 567.939 813.303 567.588 815.053C565.422 825.863 549.72 840.023 540.869 845.917C539.965 845.656 539.566 845.144 538.886 844.518C537.993 840.581 553.641 828.387 556.744 824.213C560.114 819.681 562.225 814.339 564.4 809.169Z"/>
	<path fill="#FEFEFE" transform="scale(0.5 0.5)" d="M595.581 856.891C593.568 857.415 591.488 856.45 589.719 855.535C581.639 851.355 576.149 841.314 573.479 832.98C571.519 826.861 568.598 817.187 571.677 811.197C573.172 810.256 574.523 810.509 576.267 810.463C577.037 830.807 581.643 841.94 595.581 856.891Z"/>
	<path fill="#FEFEFE" transform="scale(0.5 0.5)" d="M571.899 750.064L576.558 749.974C576.767 768.248 576.766 786.561 576.396 804.832C574.605 804.762 573.175 804.762 571.713 803.701C570.062 795.797 570.762 757.964 571.899 750.064Z"/>
	<path fill="#1EAD9E" transform="scale(0.5 0.5)" d="M398.593 645.196L563.758 645.513C557.427 656.188 552.55 667.929 547.371 679.204L526.537 723.499L523.906 728.773L366.025 728.49C376.401 700.591 389.109 673.38 398.593 645.196Z"/>
	<path fill="#FEFEFE" transform="scale(0.5 0.5)" d="M487.717 696.986C489.544 696.933 491.381 696.974 493.201 697.159C494.947 697.337 495.789 697.685 496.918 699.016C496.974 700.688 496.641 701.056 495.846 702.481C494.376 702.529 492.907 702.538 491.437 702.478C489.319 702.393 488.229 702.231 486.758 700.659C486.582 698.993 487.01 698.473 487.717 696.986Z"/>
	<path fill="#FEFEFE" transform="scale(0.5 0.5)" d="M456.756 696.652C457.948 696.626 459.105 696.664 460.263 696.993C461.409 697.319 462.765 698.364 463.193 699.491C463.547 700.424 463.385 700.802 463.061 701.669C462.208 702.151 461.592 702.403 460.624 702.562C459.386 702.592 458.105 702.652 456.873 702.514C455.275 702.335 453.266 701.391 452.349 700.047C451.891 699.376 452.198 699.074 452.391 698.364C453.799 697.217 454.997 696.997 456.756 696.652Z"/>
	<path fill="#FEFEFE" transform="scale(0.5 0.5)" d="M418.687 697.017C420.94 696.941 423.317 696.847 425.563 697.106C426.985 697.27 427.864 697.747 428.777 698.855C429.056 700.491 428.71 700.921 428.076 702.418C425.869 702.572 423.609 702.771 421.399 702.638C419.69 702.534 418.879 702.14 417.737 700.893C417.603 699.08 417.928 698.621 418.687 697.017Z"/>
	<path fill="#801657" transform="scale(0.5 0.5)" d="M230.405 282.207C231.445 282.078 230.955 281.992 231.878 282.449C229.866 284.53 226.966 285.771 224.517 287.305C217.737 291.551 212.571 298.297 208.877 305.294C205.718 311.28 203.999 317.628 203.588 324.38C203.084 332.674 203.454 341.171 203.476 349.482L203.525 392.336L203.537 530.914L203.25 632.486C203.246 648.974 202.151 667.767 203.927 684.054C204.871 692.714 208.113 699.982 212.481 707.44C214.14 710.275 216.094 713.056 217.086 716.204C216.812 717.684 216.906 717.691 215.724 718.598C209.263 719.522 199.703 713.076 194.443 709.881C193.183 708.949 191.948 707.991 190.78 706.945C178.174 695.655 170.315 679.97 169.545 663.013C168.413 638.083 169.475 612.85 169.497 587.89L169.509 444.147L169.497 360.399C169.464 347.853 168.163 332.472 169.756 320.273C170.849 311.902 175.329 302.887 181.025 296.697C194.648 281.891 211.957 282.874 230.405 282.207Z"/>
	<path fill="#ED5D60" transform="scale(0.5 0.5)" d="M288.512 168.694C288.231 158.195 289.396 146.803 296.38 138.443C302.632 130.96 311.172 127.887 320.675 127.2C327.828 126.682 335.176 126.982 342.354 126.976L380.513 126.966L507.704 127.294L631.27 127.289C652.315 127.265 673.62 125.856 694.615 127.444C699.418 127.807 703.417 128.977 707.09 132.162L707.326 132.683C708.937 136.173 711.031 139.376 712.798 142.781C717.165 151.196 717.654 159.71 717.841 169.016L446.134 168.801C393.624 168.804 341.001 169.605 288.512 168.694Z"/>
	<path fill="#0B0166" transform="scale(0.5 0.5)" d="M316.823 139.153C318.185 139.224 319.644 139.371 320.948 139.774C324.124 140.757 326.989 142.871 328.381 145.942C329.679 148.805 329.749 152.217 328.639 155.152C326.83 159.931 323.463 161.828 319.049 163.698C316.2 163.379 313.614 163.063 311.124 161.499C308.172 159.645 306.082 156.755 305.444 153.311C304.893 150.34 305.559 147.188 307.288 144.708C309.522 141.506 313.09 139.853 316.823 139.153Z"/>
	<path fill="#FEFEFE" transform="scale(0.5 0.5)" d="M314.638 142.504C315.919 142.491 317.251 142.452 318.525 142.598C320.676 142.845 323.09 144.358 324.285 146.157C326.312 149.209 325.775 152.416 325.214 155.792C323.363 157.712 321.716 159.097 319.379 160.416C318.212 160.562 316.941 160.547 315.781 160.337C313.497 159.924 311.317 158.658 310.02 156.707C308.544 154.487 308.24 151.754 308.878 149.2C309.726 145.806 311.717 144.177 314.638 142.504Z"/>
	<path fill="#0B0166" transform="scale(0.5 0.5)" d="M377.859 138.623C380.258 138.772 382.707 139.297 384.839 140.443C389.062 142.713 390.531 146.839 391.76 151.153C391.415 152.538 391.076 153.951 390.526 155.272C388.641 159.795 385.293 161.468 381.066 163.313C378.815 163.601 376.174 163.184 374.098 162.279C371.053 160.951 368.952 158.266 367.952 155.147C366.896 151.852 367.219 148.165 368.884 145.127C370.916 141.42 373.913 139.743 377.859 138.623Z"/>
	<path fill="#FEFEFE" transform="scale(0.5 0.5)" d="M378.447 142.039C379.7 142.25 381.091 142.478 382.273 142.958C384.685 143.937 386.718 146.301 387.548 148.737C388.311 150.975 388.095 153.428 386.973 155.506C385.436 158.35 383.024 159.433 380.095 160.413C378.247 160.362 376.741 160.091 375.077 159.234C372.813 158.069 371.137 155.959 370.516 153.491C369.91 151.079 370.332 148.443 371.705 146.365C373.333 143.9 375.646 142.702 378.447 142.039Z"/>
	<path fill="#0B0166" transform="scale(0.5 0.5)" d="M345.038 139.039C348.185 138.877 350.959 138.952 353.824 140.427C357.764 142.454 359.36 146.283 360.54 150.304C360.268 151.711 360.028 153.176 359.619 154.551C358.32 158.915 354.892 161.197 351.065 163.214C348.792 163.556 346.599 163.54 344.396 162.788C341.333 161.743 338.924 159.404 337.549 156.506C336.092 153.434 335.841 149.745 337.057 146.551C338.591 142.519 341.229 140.733 345.038 139.039Z"/>
	<path fill="#FEFEFE" transform="scale(0.5 0.5)" d="M344.919 142.496C346.405 142.456 348.04 142.356 349.503 142.62C352.005 143.073 354.56 144.904 355.896 147.05C357.055 148.912 357.407 151.28 356.814 153.395C355.861 156.791 353.835 158.253 350.933 159.97C350.083 160.21 349.248 160.285 348.365 160.244C345.809 160.124 343.113 159.172 341.471 157.129C339.79 155.037 339.293 152.413 339.679 149.8C340.189 146.354 342.273 144.505 344.919 142.496Z"/>
	<path fill="#0B0166" transform="scale(0.5 0.5)" d="M407.008 139.02C408.966 138.934 411.114 138.86 413.032 139.263C416.107 139.909 419.048 141.837 420.764 144.478C422.595 147.295 423.066 150.846 422.212 154.077C420.955 158.834 417.854 161.146 413.814 163.404C412.133 163.531 410.449 163.621 408.783 163.289C405.388 162.611 402.297 160.708 400.426 157.765C398.651 154.974 398.094 151.472 398.959 148.275C400.154 143.861 403.199 141.246 407.008 139.02Z"/>
	<path fill="#FEFEFE" transform="scale(0.5 0.5)" d="M408.17 142.556L408.74 142.517C409.645 142.447 410.583 142.343 411.49 142.441C413.647 142.675 416.223 144.093 417.551 145.811C418.989 147.672 419.448 150.052 419.09 152.346C418.468 156.34 416.145 158.221 413.048 160.463C412.012 160.575 411 160.687 409.964 160.524C407.208 160.091 404.296 158.327 402.791 155.958C401.445 153.838 401.137 151.294 401.84 148.894C402.861 145.402 405.105 144.104 408.17 142.556Z"/>
	<defs>
		<linearGradient id="gradient_0" gradientUnits="userSpaceOnUse" x1="138.24893" y1="817.27612" x2="356.12985" y2="774.50812">
			<stop offset="0" stop-color="#F88412"/>
			<stop offset="1" stop-color="#FBCB27"/>
		</linearGradient>
	</defs>
	<path fill="url(#gradient_0)" transform="scale(0.5 0.5)" d="M366.382 890.965C363.413 892.671 360.017 894.6 356.634 895.216C348.566 896.686 339.67 895.778 331.485 895.592C323.626 895.415 315.756 895.443 307.895 895.501L218.842 895.79C204.57 895.796 189.778 896.898 175.58 895.543C170.024 895.013 165.313 893.561 160.71 890.285C153.5 885.152 149.213 877.923 147.758 869.229C146.888 864.03 147.214 858.438 149.131 853.503C153.396 842.523 159.784 832.25 165.388 821.914L193.301 770.257L222.173 716.821C227.918 706.167 233.218 694.779 240.261 684.928C244.769 678.623 251.22 674.71 258.847 673.431L259.339 673.628C268.779 677.357 275.921 678.632 282.992 686.709C289.612 694.272 296.729 711.98 301.87 721.762L345.843 805.048C350.22 813.377 354.602 821.709 359.173 829.934C363.161 837.108 367.527 844.142 370.81 851.676C374.849 860.945 376.687 868.045 372.721 877.879C370.907 882.377 368.147 886.494 366.382 890.965Z"/>
	<path fill="#0B0166" transform="scale(0.5 0.5)" d="M259.066 829.577C263.932 829.209 268.644 829.31 273.207 831.272C278.666 833.62 282.883 838.087 284.943 843.657C287.148 849.617 286.599 856.452 283.815 862.126C280.613 868.65 275.088 872.272 268.399 874.488C262.759 875.7 257.168 875.198 251.967 872.488C246.691 869.737 242.989 864.965 241.298 859.293C239.483 853.203 239.993 846.398 243.11 840.818C246.743 834.311 252.262 831.602 259.066 829.577Z"/>
	<path fill="#FEFEFE" transform="scale(0.5 0.5)" d="M269.987 834.167C275.198 836.504 279.186 840.247 281.155 845.705C282.792 850.244 282.636 855.385 280.597 859.775C279.166 862.854 277.114 865.312 274.349 867.257C273.978 862.959 276.541 857.312 277.012 852.888C277.789 845.604 274.401 839.613 269.987 834.167Z"/>
	<path fill="#D01349" transform="scale(0.5 0.5)" d="M274.05 867.36C270.627 870.244 266.523 872.022 261.956 871.694C256.994 871.337 252.325 868.835 249.098 865.073C245.563 860.953 244.114 855.639 244.645 850.276C245.158 845.103 247.439 839.865 251.669 836.68C256.809 832.809 262.801 832.735 268.854 833.697L269.987 834.167C274.401 839.613 277.789 845.604 277.012 852.888C276.541 857.312 273.978 862.959 274.349 867.257L274.05 867.36Z"/>
	<path fill="#ED5D60" transform="scale(0.5 0.5)" d="M268.854 833.697L269.987 834.167C274.401 839.613 277.789 845.604 277.012 852.888C276.541 857.312 273.978 862.959 274.349 867.257L274.05 867.36C272.877 867.225 271.702 867.074 270.542 866.848C266.148 865.99 262.321 863.303 259.864 859.573C257.21 855.544 256.197 850.452 257.214 845.728C258.789 838.413 263.243 837.177 268.854 833.697Z"/>
	<path fill="#0B0166" transform="scale(0.5 0.5)" d="M258.195 714.099C263.34 713.492 268.109 713.814 272.908 715.989C278.081 718.333 283.146 722.98 284.914 728.52C287.216 735.731 280.523 807.756 277.043 814.475C274.979 818.461 271.472 820.107 267.393 821.354C262.596 822.367 257.244 821.732 252.971 819.217C249.072 816.922 247.93 814.23 246.894 810.017C243.742 797.21 243.139 780.062 241.8 766.685C240.782 756.524 238.8 746.091 238.91 735.887C238.954 731.844 239.089 727.636 241.317 724.138C245.152 718.118 251.561 715.595 258.195 714.099Z"/>
	<path fill="#FEFEFE" transform="scale(0.5 0.5)" d="M265 718.746C270.598 719.725 276.196 721.92 279.691 726.669C281.463 729.076 281.778 731.535 281.915 734.444C282.433 745.509 280.23 756.874 279.162 767.871C277.857 781.3 277.41 794.953 275.02 808.247C274.786 809.547 274.497 810.816 274.154 812.091C272.091 814.22 270.264 815.805 267.497 816.978C267.644 811.601 269.55 805.652 270.273 800.235C271.84 788.486 272.543 776.662 273.789 764.882C274.777 755.544 276.766 745.598 276.418 736.202C276.074 726.938 271.12 724.377 265 718.746Z"/>
	<path fill="#ED5D60" transform="scale(0.5 0.5)" d="M262.671 718.153L265 718.746C271.12 724.377 276.074 726.938 276.418 736.202C276.766 745.598 274.777 755.544 273.789 764.882C272.543 776.662 271.84 788.486 270.273 800.235C269.55 805.652 267.644 811.601 267.497 816.978C266.365 817.416 265.235 817.893 264.086 818.285C263.832 817.607 263.596 816.968 263.46 816.253C262.037 808.75 262.166 800.702 261.947 793.087C261.701 784.578 261.317 776.012 260.941 767.505C260.391 755.049 258.312 741.784 259.287 729.36C259.617 725.154 260.309 721.742 262.671 718.153Z"/>
	<path fill="#D01349" transform="scale(0.5 0.5)" d="M264.086 818.285C260.046 817.706 255.774 817.229 252.93 813.971C251.078 811.849 250.452 808.565 249.903 805.858C247.95 796.234 247.625 786.21 246.631 776.451C245.162 762.028 242.284 746.211 243.508 731.71C243.842 727.746 245.23 724.851 248.364 722.32C252.291 719.148 257.673 717.701 262.671 718.153C260.309 721.742 259.617 725.154 259.287 729.36C258.312 741.784 260.391 755.049 260.941 767.505C261.317 776.012 261.701 784.578 261.947 793.087C262.166 800.702 262.037 808.75 263.46 816.253C263.596 816.968 263.832 817.607 264.086 818.285Z"/>
	<path fill="#FBBB26" transform="scale(0.5 0.5)" d="M306.667 172.271L576.764 172.494L668.571 172.474C684.909 172.469 701.524 171.809 717.828 172.659C715.708 181.043 717.519 191.695 717.627 200.431C717.832 217.025 717.929 233.731 717.648 250.325L302.72 249.985C302.609 232.307 303.128 214.815 304.376 197.18C304.929 189.351 306.894 179.769 306.667 172.271Z"/>
	<path fill="#0B0166" transform="scale(0.5 0.5)" d="M685.632 195.523C688.764 195.368 692.086 195.768 694.974 197.033C699.129 198.852 702.337 202.268 703.966 206.496C705.686 210.96 705.503 215.908 703.415 220.222C700.862 225.495 696.613 227.779 691.356 229.644C687.737 229.914 684.302 229.713 680.896 228.353C676.75 226.697 673.416 223.642 671.719 219.477C670.061 215.405 670.261 210.823 672.029 206.825C674.787 200.586 679.572 197.834 685.632 195.523Z"/>
	<path fill="#FEFEFE" transform="scale(0.5 0.5)" d="M691.946 199.578C696.035 201.982 699.587 204.615 700.86 209.48C701.601 212.309 701.322 214.724 700.427 217.461C696.817 211.076 700.768 211.879 693.455 204.171C691.872 202.502 691.873 201.754 691.946 199.578Z"/>
	<path fill="#1EAD9E" transform="scale(0.5 0.5)" d="M700.427 217.461C699.622 219.567 698.652 221.405 696.952 222.937C694.171 225.442 689.942 226.408 686.279 226.048C682.761 225.703 679.647 224.052 677.474 221.257C675.128 218.239 674.195 214.223 674.835 210.468C675.471 206.737 677.594 203.368 680.794 201.315C684.4 199.002 687.842 198.775 691.946 199.578C691.873 201.754 691.872 202.502 693.455 204.171C700.768 211.879 696.817 211.076 700.427 217.461Z"/>
	<path fill="#0B0166" transform="scale(0.5 0.5)" d="M640.052 195.572C644.49 195.233 648.46 195.546 652.326 198.005C655.986 200.334 658.464 204.08 659.312 208.325C660.263 213.08 659.154 218.25 656.438 222.257C653.696 226.303 649.605 228.582 644.888 229.54C640.839 230.282 636.659 229.658 633.021 227.693C629.111 225.58 626.281 221.933 625.068 217.67C623.769 213.101 624.38 208.158 626.839 204.08C629.919 198.971 634.552 197.013 640.052 195.572Z"/>
	<path fill="#FEFEFE" transform="scale(0.5 0.5)" d="M644.444 199.237C647.768 199.515 650.513 201.203 652.697 203.706C655.033 206.382 656.239 209.978 655.982 213.517C655.869 215.062 655.44 216.609 654.756 217.996C653.331 215.554 653.116 212.718 652.672 209.964C649.928 206.551 645.725 203.529 644.444 199.237Z"/>
	<path fill="#ED5D60" transform="scale(0.5 0.5)" d="M654.756 217.996C653.687 220.086 652.226 222.068 650.305 223.447C646.993 225.825 642.404 226.823 638.397 226.056C635.334 225.469 632.717 223.76 630.977 221.167C628.749 217.848 627.986 213.748 628.792 209.841C629.53 206.264 631.694 202.552 634.859 200.604C637.494 198.982 641.479 198.469 644.444 199.237C645.725 203.529 649.928 206.551 652.672 209.964C653.116 212.718 653.331 215.554 654.756 217.996Z"/>
	<path fill="#0B0166" transform="scale(0.5 0.5)" d="M318.5 192.032L491.152 192.019L553.598 191.998C566.242 191.988 578.949 191.667 591.581 192.232C594.698 192.372 599.883 192.393 602.441 194.265C605.441 196.46 606.722 199.925 607.324 203.467C608.604 211.001 607.877 220.658 603.366 226.978C600.695 228.803 597.988 229.646 594.763 229.847C575.397 231.056 555.816 230.007 536.425 229.989L424.539 229.997L355.369 229.967C343.37 229.98 330.97 231.223 319.073 229.455C317.37 217.271 318.3 204.318 318.5 192.032Z"/>
	<path fill="#FEFEFE" transform="scale(0.5 0.5)" d="M392.112 195.243L524.465 195.238L565.935 195.233C575.232 195.232 584.752 194.982 594.016 195.671C596.224 195.836 599.155 196.258 600.792 197.92C603.275 200.443 603.728 204.77 603.85 208.122C604.03 213.099 604.264 220.77 600.436 224.503C599.403 225.511 598.273 225.893 596.885 226.13C588.756 227.517 579.558 226.738 571.298 226.638L534.73 226.285L322.006 226.255L321.992 195.494C345.337 195.506 368.781 195.935 392.112 195.243Z"/>
	<path fill="#ED5D60" transform="scale(0.5 0.5)" d="M794.812 278.866C802.259 275.877 809.577 274.86 817.512 274.199C817.722 274.323 817.928 274.454 818.143 274.57C821.605 276.431 835.48 276.811 840.955 278.159C874.336 286.376 902.562 310.067 914.201 342.732C923.982 370.179 921.438 400.755 908.949 426.858C905.083 434.94 899.985 442.72 893.908 449.318C890.5 453.017 872.978 466.76 872.157 468.913C867.403 471.435 862.654 474.01 857.603 475.894C839.371 482.693 818.066 482.728 799.547 477.074C790.698 474.372 782.6 470.333 774.476 465.987C755.678 474.823 737.655 485.074 718.893 493.981C719.977 487.023 741.933 448.957 746.854 440.744C743.402 434.35 739.616 428.262 736.478 421.688C727.01 401.855 724.104 380.354 728.667 358.807C734.248 332.452 750.378 304.786 773.362 289.909C780.01 285.605 787.877 283.499 794.36 279.179C794.512 279.077 794.661 278.97 794.812 278.866Z"/>
	<path fill="#D01349" transform="scale(0.5 0.5)" d="M781.906 424.337C777.066 420.674 772.954 416.871 769.406 411.912C764.919 405.64 758.514 393.01 760.065 385.153C762.304 373.817 783.567 380.628 792.424 374.42L792.269 373.87C784.309 369.868 773.011 371.43 764.532 367.767C762.902 367.063 761 366.101 760.547 364.226C759.6 360.31 762.818 354.243 764.672 350.826C770.344 340.37 776.422 334.017 787.943 330.611C780.595 339.804 774.158 350.897 770.858 362.252C775.439 364.326 796.802 371.489 798.465 374.574C798.09 376.089 797.299 376.657 795.96 377.426C788.602 381.653 778.805 383.882 770.637 386.296C774.378 397.973 780.234 411.258 788.563 420.419C786.562 422.099 784.222 423.161 781.906 424.337Z"/>
	<path fill="#0B0166" transform="scale(0.5 0.5)" d="M810.093 316.406C813.727 313.129 836.789 314.886 842.525 315.025C842.521 326.017 840.483 336.88 841.714 347.889C850.126 343.752 856.064 335.109 862.586 328.594C872.858 338.661 879 348.215 883.831 361.807C874.879 365.446 863.549 368.09 856.393 374.746C864.352 381.945 874.892 382.404 884.404 386.317C879.688 400.092 874.403 411.566 862.915 421.039C862.615 421.238 862.317 421.441 862.009 421.627C858.765 423.578 855.893 425.929 852.924 428.27C849.085 424.341 845.912 419.811 842.053 415.908L841.315 415.963C841.424 421.773 841.669 427.725 840.987 433.505C832.782 433.483 824.24 432.993 816.078 433.737C810.125 434.95 802.833 434.541 796.718 434.519C797.391 426.373 800.717 418.769 801.144 410.524C797.025 413.901 792.964 417.412 788.563 420.419C780.234 411.258 774.378 397.973 770.637 386.296C778.805 383.882 788.602 381.653 795.96 377.426C797.299 376.657 798.09 376.089 798.465 374.574C796.802 371.489 775.439 364.326 770.858 362.252C774.158 350.897 780.595 339.804 787.943 330.611C790.35 330.394 791.73 331.907 793.484 333.364C796.02 335.47 798.453 337.709 800.889 339.928C801.594 332.471 799.363 325.008 798.872 317.568C802.63 317.559 806.548 317.823 810.093 316.406Z"/>
	<path fill="#D01349" transform="scale(0.5 0.5)" d="M841.315 415.963C840.881 412.008 839.439 406.414 841.597 402.9C842.781 402.29 843.27 402.114 844.566 402.603C849.957 404.641 858.833 416.377 862.915 421.039C862.615 421.238 862.317 421.441 862.009 421.627C858.765 423.578 855.893 425.929 852.924 428.27C849.085 424.341 845.912 419.811 842.053 415.908L841.315 415.963Z"/>
	<path fill="#D01349" transform="scale(0.5 0.5)" d="M798.872 317.568C802.63 317.559 806.548 317.823 810.093 316.406C811.385 322.264 816.082 342.627 813.359 347.126C812.715 348.191 812.341 348.222 811.223 348.618C806.858 347.828 803.653 343.117 800.889 339.928C801.594 332.471 799.363 325.008 798.872 317.568Z"/>
	<path fill="#D01349" transform="scale(0.5 0.5)" d="M801.144 410.524C803.822 407.413 808.062 402.06 812.233 401.351C813.259 401.83 813.536 401.868 813.974 402.987C816.691 409.926 808.477 427.926 812.011 433.246C813.427 433.649 814.61 433.734 816.078 433.737C810.125 434.95 802.833 434.541 796.718 434.519C797.391 426.373 800.717 418.769 801.144 410.524Z"/>
	<path fill="#FEFEFE" transform="scale(0.5 0.5)" d="M814.345 318.512L839.113 318.503C837.841 328.823 837.818 339.257 836.881 349.606C839.383 350.997 841.988 352.197 844.567 353.439C848.814 347.447 857.097 338.229 862.852 333.669C870.832 341.899 875.541 349.116 879.487 359.923C870.978 362.965 862.564 366.324 854.088 369.464L853.422 378.967C861.175 383.992 871.204 385.826 880.013 388.139C876.062 399.115 871.577 407.861 862.991 416.004C856.607 409.737 850.51 403.362 844.701 396.554L836.962 400.539C837.191 410.151 838.781 420.486 837.16 430.001L814.872 430.006C815.61 423.513 816.827 408.057 818.439 402.56C818.482 402.411 818.541 402.267 818.593 402.121L818.017 401.826C818.513 401.116 818.403 401.508 818.356 400.652C815.57 399.16 812.593 398.074 809.657 396.917C803.808 403.958 796.122 409.701 789.129 415.588C782.534 407.604 778.474 398.562 775.022 388.867C784.305 385.668 793.388 382.069 802.499 378.418L802.48 370.76C793.302 367.539 784.133 364.156 775.367 359.922C778.615 350.552 782.851 342.811 788.634 334.748C796.226 340.592 803.048 347.252 809.795 354.03C812.846 352.647 815.639 350.969 818.49 349.218C817.297 338.957 815.802 328.738 814.345 318.512Z"/>
	<path fill="#FEDE9A" transform="scale(0.5 0.5)" d="M235.673 360.35C245.193 357.513 276.328 358.998 287.991 358.999L388.818 359L591.202 358.974C631.238 358.921 671.398 357.9 711.412 359.317C710.11 367.502 709.517 375.727 709.512 384.01L374.936 384.279L322.402 384.232L282.836 384.015C277.088 384.038 269.045 383.349 263.5 384.822C262.173 385.174 260.791 386.405 260.179 387.605C258.108 391.666 258.384 399.787 258.284 404.267C258.013 416.4 258.517 428.605 258.594 440.748L258.969 518.454L258.856 574C258.763 584.225 258.207 594.504 258.579 604.722C258.716 608.488 258.969 612.966 260.495 616.449C263.63 618.517 269.93 618.06 273.686 618.132C301.318 618.665 329.028 617.996 356.673 617.992L534.579 617.987L672.162 618C698.141 618.033 724.132 618.729 750.107 617.925C751.148 617.277 752.215 616.631 753.191 615.887C755.739 613.944 756.376 611.484 756.779 608.428C758.15 598.04 756.612 587.07 756.523 576.611L756.485 518.999C756.495 505.918 755.936 492.215 757.325 479.216C762.313 480.544 776.787 486.112 780.198 489.883C779.688 506.608 779.993 523.459 779.999 540.197L780.434 642.01L408.882 641.761L294.611 641.518L261.364 641.516C255.252 641.557 249.014 641.981 242.914 641.666C241.312 641.583 237.125 641.316 236.221 639.983C234.735 637.792 234.631 631.017 234.552 628.172C234.054 610.321 234.525 592.32 234.527 574.45L234.53 463.418C234.482 440.46 234.025 417.5 234.258 394.543C234.373 383.259 233.929 371.517 235.673 360.35Z"/>
	<path fill="#1EAD9E" transform="scale(0.5 0.5)" d="M243.704 283.577C254.271 282.875 265.005 283.311 275.588 283.413L329.15 283.952L481.065 284.025L662.007 284.007L711.298 283.756C722.404 283.608 733.665 283.033 744.757 283.666C750.529 283.994 754.874 286.015 759.373 289.492C758.341 290.022 757.346 290.589 756.353 291.191C732.535 305.637 718.406 329.092 711.919 355.782C691.183 354.525 669.929 355.281 649.148 355.356L538.933 355.766L359.928 355.732C321.664 355.606 283.294 354.948 245.041 355.337C241.533 355.372 237.543 355.172 234.383 356.922C234.155 357.049 233.614 357.384 233.416 357.577C231.35 359.59 230.778 364.628 230.531 367.474C229.825 375.606 230.54 384.207 230.563 392.402L230.651 443.75L230.982 574.331L230.821 609.268C230.706 617.308 230.217 625.458 230.832 633.479C231.088 636.813 231.464 640.404 234.008 642.867C236.174 644.964 241.256 645.147 244.197 645.33C249.526 645.663 254.962 645.294 260.302 645.262L292.284 645.23L395.103 645.237C384.602 673.368 372.415 700.799 362.093 729.028L317.55 729.006C313.904 722.568 310.358 716.017 306.997 709.425C300.402 696.49 293.897 680.098 280.323 672.989C272.446 668.863 263.042 667.874 254.536 670.547C236.332 676.267 228.714 697.058 220.527 712.441C214.849 705.765 210.769 697.459 208.724 688.954C204.956 673.279 207.341 642.143 207.372 624.771L207.438 498.308L207.413 381.342L207.319 348.608C207.25 340.321 206.894 331.968 207.519 323.696C208.056 316.598 210.375 310.168 214.1 304.114C220.85 293.143 231.301 286.456 243.704 283.577Z"/>
	<path fill="#FEFEFE" transform="scale(0.5 0.5)" d="M604.763 324.199C606.195 324.147 607.692 324.092 609.106 324.365C610.743 324.682 611.961 325.34 612.907 326.664L612.66 327.517C611.569 328.404 610.586 328.832 609.294 329.32C606.675 329.409 604.401 329.521 602.128 327.995C601.327 327.457 601.589 327.656 601.348 326.589C602.239 325.288 603.39 324.852 604.763 324.199Z"/>
	<path fill="#FEFEFE" transform="scale(0.5 0.5)" d="M680.275 323.726C680.701 323.711 681.126 323.696 681.552 323.694C683.421 323.681 685.007 324.013 686.216 325.572C686.943 326.51 686.844 326.917 686.556 327.932C685.238 328.971 684.703 328.857 683.068 329.001C681.954 329.046 680.668 329.176 679.568 329.022C678.264 328.839 677.023 327.832 676.298 326.778C675.777 326.02 676.042 325.806 676.213 324.974C677.644 323.843 678.491 323.943 680.275 323.726Z"/>
	<path fill="#FEFEFE" transform="scale(0.5 0.5)" d="M641.611 323.743C643.185 323.721 645.041 323.522 646.596 323.755C647.96 323.96 648.339 324.582 649.127 325.632C649.337 326.85 649.478 327.545 649.019 328.714L647.375 329.254C645.194 329.364 642.054 329.674 640.286 328.057C639.228 327.09 639.242 326.715 639.178 325.387C640.078 324.124 640.107 324.159 641.611 323.743Z"/>
	<path fill="#FEFEFE" transform="scale(0.5 0.5)" d="M702.754 313.767C707.593 313.632 720.218 312.299 724.231 314.528C725.008 314.959 724.883 315.144 725.145 315.93L724.505 317.109L724.114 316.849L724.217 317.575C723.33 318.463 722.831 318.269 721.622 318.423C717.109 318.754 703.536 320.246 700.312 317.228C699.398 316.372 699.396 315.736 699.332 314.595C700.361 313.755 701.456 313.9 702.754 313.767Z"/>
	<path fill="#0B0166" transform="scale(0.5 0.5)" d="M298.54 316.083C300.78 315.954 303.195 315.885 305.388 316.415C308.517 317.172 311.405 319.204 313.075 321.961C314.837 324.871 315.249 328.404 314.296 331.662C312.982 336.155 309.818 338.737 305.896 340.956C304.035 341.048 302.101 341.125 300.259 340.792C296.897 340.184 293.604 338.254 291.667 335.408C289.818 332.693 289.213 329.213 289.979 326.027C291.169 321.071 294.473 318.613 298.54 316.083Z"/>
	<path fill="#FBBB26" transform="scale(0.5 0.5)" d="M300.208 319.509C301.303 319.482 302.387 319.483 303.466 319.711C306.063 320.259 308.634 321.73 310.032 324.04C311.277 326.098 311.528 328.437 310.941 330.751C310.058 334.231 307.865 335.713 304.895 337.428C303.66 337.539 302.249 337.622 301.026 337.359C298.598 336.836 296.031 335.2 294.764 333.035C293.53 330.925 293.31 328.565 293.933 326.222C294.866 322.718 297.235 321.214 300.208 319.509Z"/>
	<path fill="#0B0166" transform="scale(0.5 0.5)" d="M273.091 315.594C275.299 315.734 277.714 316.188 279.736 317.11C282.86 318.534 285.284 321.282 286.345 324.538C287.361 327.656 287.132 331.131 285.591 334.042C283.517 337.957 280.045 339.876 275.922 341.041C273.373 340.93 270.952 340.729 268.654 339.537C265.599 337.953 263.293 335.225 262.309 331.923C261.323 328.613 261.733 324.992 263.511 322.024C265.746 318.295 269.031 316.682 273.091 315.594Z"/>
	<path fill="#FAA15C" transform="scale(0.5 0.5)" d="M272.547 319.483C275.812 319.369 277.654 320.048 280.583 321.53C281.613 322.912 282.751 324.319 283.259 325.992C284.251 329.254 282.871 331.859 281.348 334.679C279.758 335.65 278.029 336.467 276.382 337.342C275.032 337.397 273.56 337.388 272.246 337.021C269.809 336.341 267.529 334.51 266.384 332.254C265.359 330.234 265.255 327.855 265.984 325.722C267.125 322.383 269.538 320.989 272.547 319.483Z"/>
	<path fill="#0B0166" transform="scale(0.5 0.5)" d="M243.606 316.037C246.1 315.96 248.359 315.907 250.704 316.872C253.925 318.198 256.542 320.741 257.827 323.991C259.05 327.082 258.914 330.568 257.537 333.587C255.921 337.131 252.57 339.683 249.005 341.048C246.773 341.303 244.785 341.381 242.59 340.806C239.254 339.933 236.42 337.776 234.826 334.706C233.207 331.589 233.016 327.856 234.243 324.57C235.977 319.931 239.301 317.874 243.606 316.037Z"/>
	<path fill="#FBBB26" transform="scale(0.5 0.5)" d="M243.276 320.072C244.659 319.91 246.127 319.762 247.514 319.946C249.943 320.268 252.358 321.661 253.791 323.655C255.081 325.449 255.473 327.671 255.055 329.824C254.38 333.298 252.105 335.043 249.343 336.976C247.668 337.615 246.117 337.577 244.371 337.269C242.02 336.853 240.243 335.881 238.933 333.838C237.501 331.606 237.258 328.899 237.828 326.351C238.545 323.149 240.72 321.78 243.276 320.072Z"/>
	<path fill="#156EA1" transform="scale(0.5 0.5)" d="M840.735 645.241C851.856 645.07 864.748 644.226 873.357 652.649C877.415 656.62 879.953 661.753 880.804 667.34C882.122 675.992 881.515 685.072 881.46 693.804L881.281 731.089L881.362 864.188C881.454 873.006 880.812 881.667 874.225 888.294C869.97 892.575 864.463 895.761 858.495 896.858C852.303 897.997 845.589 897.701 839.294 897.808L804.55 898.138C757.415 898.487 710.289 897.878 663.155 897.769C652.354 898.211 638.836 899.245 630.356 891.154C623.672 884.775 622.595 876.931 622.219 868.211C621.666 855.399 622.445 842.579 622.48 829.76L622.516 749.086L622.489 701.005C622.426 691.691 621.518 681.811 622.765 672.589C623.655 666.009 626.205 660.346 630.745 655.464C635.056 650.829 640.689 647.454 646.951 646.291C652.898 645.186 659.377 645.661 665.424 645.681L700.39 645.99L778.854 645.526C799.447 645.495 820.158 645.99 840.735 645.241Z"/>
	<path fill="#0B0166" transform="scale(0.5 0.5)" d="M650.599 658.515L783.73 658.5L823.534 658.445C832.58 658.386 841.918 657.941 850.937 658.656C854.493 658.938 858.115 659.73 861.181 661.625C865.486 664.284 868.299 669.456 869.17 674.359C870.597 682.398 869.532 691.771 869.517 699.947L869.495 752.274L869.973 826.694C870.029 839.446 870.66 852.419 869.727 865.149C869.401 869.592 868.776 872.793 865.993 876.445C862.746 880.707 857.918 883.608 852.621 884.423C839.904 885.585 826.989 885.246 814.232 885.252L759.377 885.257L697.072 884.968C683.45 885.015 669.695 885.798 656.086 885.122C651.877 884.913 647.284 884.655 643.464 882.73C640.066 881.017 636.981 877.936 635.783 874.27C632.486 864.178 634.59 814.039 634.516 800.962L634.249 727.671C634.154 712.428 633.451 696.989 634.171 681.763C634.355 677.863 634.629 673.559 636.387 670.018C639.47 663.806 644.238 660.695 650.599 658.515Z"/>
	<path fill="#801657" transform="scale(0.5 0.5)" d="M679.734 766.237C682.287 768.232 704.529 811.716 708.226 818.544C696.61 818.196 684.995 818.238 673.375 818.245C664.199 818.26 655.027 818.299 645.853 818.062C650.881 809.973 656.492 802.178 661.699 794.195C667.758 784.906 673.513 775.419 679.734 766.237Z"/>
	<path fill="#83C1F1" transform="scale(0.5 0.5)" d="M712.811 715.859C720.175 722.614 733.289 743.072 739.798 752.114C748.825 764.654 758.294 776.902 767.61 789.23C774.863 798.827 781.943 808.655 789.549 817.969L759.25 818.001L711.786 818C702.453 799.284 691.653 781.362 682.532 762.546C692.774 747.084 702.472 731.274 712.811 715.859Z"/>
	<path fill="#FBBB26" transform="scale(0.5 0.5)" d="M851.627 692.747C851.71 692.819 851.798 692.884 851.875 692.962C855.105 696.222 855.871 701.463 857.426 705.657C860.22 713.198 863.854 720.746 865.343 728.679C867.329 739.265 866.06 750.853 866.028 761.593L866.026 818.298L794.16 818.252C783.642 805.225 773.8 791.674 763.773 778.271L752.014 762.294C759.114 748.47 767.537 734.765 775.879 721.65C781.61 730.129 788.025 738.223 794.004 746.538C799.02 753.515 803.44 760.75 809.094 767.266C814.873 759.192 819.078 749.406 823.922 740.705C832.912 724.56 842.196 708.639 851.627 692.747Z"/>
	<path fill="#FEFEFE" transform="scale(0.5 0.5)" d="M835.773 661.743C843.157 661.668 855.017 660.198 860.679 665.702C863.126 668.081 864.558 671.36 865.268 674.656C866.767 681.614 865.874 689.198 865.825 696.266C865.775 703.562 865.946 710.863 865.915 718.163C862.274 706.85 857.2 695.941 853.335 684.672C846.353 692.025 841.745 702.657 836.78 711.453C827.459 727.964 818.447 744.789 808.59 760.981C801.871 751.817 795.326 742.54 788.779 733.254C784.509 727.197 780.367 720.708 775.345 715.247C771.045 721.52 767.414 728.369 763.631 734.966C758.971 743.091 754.178 751.176 749.772 759.44C736.51 743.319 725.605 725.382 712.266 709.333C696.571 732.774 681.744 756.906 666.352 780.566C657.739 793.804 646.654 806.89 640.504 821.418C652.929 822.507 665.54 822.182 677.998 822.045L708.124 821.808C729.98 821.446 751.889 821.704 773.75 821.71C804.562 821.462 835.446 821.999 866.271 821.992C866.315 834.917 869.676 865.859 861.4 875.56C858.053 879.484 853.922 880.696 848.933 880.989C832.739 881.939 816.253 881.285 800.029 881.268L724.353 881.322C711.816 881.251 699.27 881.234 686.735 881.411C675.386 881.572 663.345 882.065 652.043 881.042C648.744 880.744 645.798 879.935 643.32 877.656C638.532 873.251 637.847 867.905 637.569 861.744C637.01 849.368 637.837 836.93 637.959 824.55L638.011 762.649L637.694 710.497C637.637 700.043 637.183 689.149 638.236 678.744C638.638 674.774 639.803 670.607 642.617 667.654C645.264 664.877 648.759 662.721 652.604 662.222C657.59 661.574 662.916 661.87 667.96 661.844L700.93 661.996L787.071 661.986C803.244 661.989 819.622 662.523 835.773 661.743Z"/>
	<path fill="#0B0166" transform="scale(0.5 0.5)" d="M661.248 707.786C666.498 707.456 681.312 706.101 685.426 709.206L685.469 710.36C684.829 711.049 684.175 711.633 683.444 712.224C678.03 712.425 663.038 714.122 659.027 710.604L659.405 709.296C660.029 708.805 660.636 708.292 661.248 707.786Z"/>
	<path fill="#0B0166" transform="scale(0.5 0.5)" d="M666.325 685.21C671.551 684.906 692.742 683.96 696.039 686.607C696.126 687.65 696.316 687.416 695.744 688.122C694.328 689.869 692.404 690.014 690.32 690.333C681.188 689.812 671.629 690.893 662.613 689.871C660.831 689.67 659.187 689.389 658.048 687.941L658.282 687.159C660.243 685.213 663.703 685.413 666.325 685.21Z"/>
	<path fill="#988E93" transform="scale(0.5 0.5)" d="M803.584 859.254C811.488 858.808 847.341 858.006 852.613 860.308C853.27 860.595 853.571 861.153 853.745 861.846C854.107 863.281 853.585 864.338 852.984 865.573C850.6 867.256 846.505 866.531 843.625 866.487C836.796 866.51 797.509 866.919 794.742 865.998C793.587 865.614 792.585 864.667 792.241 863.475C791.853 862.125 791.994 861.741 792.563 860.56C795.295 858.497 800.252 859.218 803.584 859.254Z"/>
	<path fill="#988E93" transform="scale(0.5 0.5)" d="M793.367 836.691C807.807 836.205 822.392 836.154 836.838 836.411C841.012 836.486 845.757 836.095 849.873 836.609C851.219 836.777 852.091 837.237 853.181 838.013C853.924 839.181 854.155 839.84 853.968 841.243C853.79 842.574 853.478 843.157 852.448 843.967C842.269 843.963 832.082 843.896 821.905 844.031C811.376 844.171 801.316 845.05 790.882 843.049C791.559 840.859 792.463 838.794 793.367 836.691Z"/>
	<path fill="#988E93" transform="scale(0.5 0.5)" d="M694.968 859.249C703.158 858.825 774.213 857.892 777.401 859.866C778.606 860.613 778.857 861.454 779.253 862.738C779.032 864.182 778.666 864.694 777.784 865.794C773.631 867.386 744.246 866.218 737.375 866.213L681.861 866.205C674.512 866.225 662.962 867.132 655.971 866.058C654.072 865.767 652.995 865.207 651.893 863.639C651.892 862.31 652.398 861.126 653.366 860.186C655.08 858.52 689.738 859.272 694.968 859.249Z"/>
	<path fill="#988E93" transform="scale(0.5 0.5)" d="M686.416 836.767C709.682 835.949 733.31 836.095 756.585 836.669C762.429 836.814 769.142 836.027 774.846 837.205C776.882 837.626 778.26 838.235 779.413 840.021C779.512 841.28 779.539 841.836 778.616 842.87C777.93 843.639 776.675 844.289 775.662 844.431C768.767 845.396 753.952 844.387 746.625 844.212L687.129 844.195C677.827 844.194 668.295 844.688 659.018 844.246C657.504 844.174 655.275 844.138 654.052 843.146C653.143 842.408 652.576 841.402 652.589 840.206C652.597 839.499 652.913 838.725 653.416 838.239C654.395 837.291 655.606 836.955 656.917 836.759C660.849 836.171 665.295 836.772 669.277 836.835C674.985 836.927 680.708 836.818 686.416 836.767Z"/>
	<path fill="#FAA15C" transform="scale(0.5 0.5)" d="M753.61 505.014C753.118 527.579 753.028 550.117 753.122 572.688C753.169 583.775 753.995 595.011 753.353 606.075C753.222 608.339 753.008 610.668 751.654 612.567C750.984 613.508 750.553 613.816 749.39 613.984C739.507 615.415 729.692 614.673 719.771 614.54C708.092 614.382 696.391 614.514 684.709 614.512L543.785 614.505L356.654 614.512L298.749 614.484C288.861 614.49 278.604 615.26 268.759 614.386C266.771 614.209 264.823 614.03 263.192 612.784C262.711 610.273 262.478 607.705 262.362 605.152C262.026 597.729 262.506 590.186 262.521 582.752L262.521 533.935L262.403 402.02C262.424 399.455 262.009 390.786 263.973 389.191C266.268 387.329 273.619 387.626 276.53 387.549C291.067 387.168 305.709 387.71 320.261 387.716L417.61 387.754L695.174 387.999C693.884 398.582 693.387 408.698 695.614 419.216C696.834 424.979 698.662 430.717 699.436 436.555C699.673 437.996 699.726 439.299 700.785 440.399C701.837 440.792 702.664 441.053 703.788 441.115C707.409 450.468 711.241 459.583 716.629 468.089C713.12 476.063 702.787 496.732 702.231 504.296C703.164 505.105 703.257 505.085 704.494 504.986C705.26 504.924 706.09 504.662 706.839 504.48C722.412 505.357 738.088 504.035 753.61 505.014Z"/>
	<path fill="#0B0166" transform="scale(0.5 0.5)" d="M711.201 563.789C717.315 563.465 724.234 562.768 730.309 563.563C732.001 563.785 732.999 564.054 734.05 565.413C733.981 566.707 734.168 567.221 733.327 568.279C726.826 568.192 717.097 569.648 711.096 567.717L710.477 566.507C710.551 565.198 710.321 564.82 711.201 563.789Z"/>
	<path fill="#0B0166" transform="scale(0.5 0.5)" d="M706.417 521.493C713.169 521.565 727.816 520.036 733.483 522.406C734.159 523.776 733.943 524.48 733.831 525.982C725.871 525.912 714.935 527.784 707.445 525.297C706.491 524.245 706.555 522.842 706.417 521.493Z"/>
	<path fill="#0B0166" transform="scale(0.5 0.5)" d="M283.603 561.25C290.369 561.018 298.665 560.189 305.269 561.628C306.384 561.871 307.178 561.994 307.779 563.015C307.686 563.165 307.609 563.326 307.5 563.463C305.995 565.351 303.06 565.145 300.874 565.243C293.967 565.44 286.299 566.245 279.48 564.983C278.031 564.715 276.032 564.484 275.171 563.231C275.284 563.105 275.383 562.964 275.511 562.854C277.58 561.065 281.028 561.271 283.603 561.25Z"/>
	<path fill="#0B0166" transform="scale(0.5 0.5)" d="M276.885 483.513C284.264 483.459 300.141 481.637 306.361 484.326C307.404 485.546 307.211 485.915 307.254 487.475C298.184 487.428 286.563 489.583 277.905 486.875C276.892 485.717 277.04 485.016 276.885 483.513Z"/>
	<path fill="#0B0166" transform="scale(0.5 0.5)" d="M276.448 583.511C284.481 583.563 299.256 581.525 306.441 584.746C307.463 585.937 307.29 586.039 307.252 587.635C298.751 587.908 285.512 589.406 277.404 586.875C276.486 585.731 276.602 584.949 276.448 583.511Z"/>
	<path fill="#0B0166" transform="scale(0.5 0.5)" d="M276.896 539.525C283.708 539.296 300.971 537.917 306.421 540.067C307.37 541.415 307.23 541.854 307.263 543.462C297.798 543.609 287.385 545.122 278.077 543.176C276.937 541.902 277.087 541.193 276.896 539.525Z"/>
	<path fill="#0B0166" transform="scale(0.5 0.5)" d="M276.736 517.519C283.32 517.5 301.257 515.716 306.86 518.468C307.765 519.703 307.694 519.897 307.723 521.451C298.835 522.178 286.126 523.236 277.522 521.182C276.512 519.979 276.782 519.06 276.736 517.519Z"/>
	<path fill="#0B0166" transform="scale(0.5 0.5)" d="M706.057 539.698L735.951 539.767C736.015 542.368 736.034 544.907 735.829 547.506C725.885 547.482 715.95 547.438 706.009 547.783L706.057 539.698Z"/>
	<path fill="#0B0166" transform="scale(0.5 0.5)" d="M643.042 516.605L681.992 516.628L681.919 524.028L643.011 524.15L643.042 516.605Z"/>
	<path fill="#0B0166" transform="scale(0.5 0.5)" d="M643.015 480.019L683.01 479.978L682.987 487.525L643.017 487.516L643.015 480.019Z"/>
	<path fill="#0B0166" transform="scale(0.5 0.5)" d="M289.357 399.745C294.937 399.686 301.859 399.148 306.624 402.577C308.206 403.715 309.136 404.988 309.484 406.92C309.303 408.062 309.007 408.797 308.208 409.663C304.409 413.786 297.235 413.28 292.125 413.359C286.924 413.556 277.31 414.842 273.121 411.288C272.055 410.384 271.516 409.221 271.419 407.833C271.288 405.956 271.909 403.882 273.196 402.487C276.593 398.803 284.744 399.768 289.357 399.745Z"/>
	<path fill="#801657" transform="scale(0.5 0.5)" d="M285.784 403.233C290.759 403.132 297.536 402.741 302.333 404.146C303.735 404.557 304.698 405.036 305.431 406.305L305.065 407.361C302.137 410.064 299.021 409.725 295.256 409.82L292.227 409.91C287.81 410.008 279.129 411.015 275.683 407.726C275.296 406.442 275.367 406.334 275.793 405.048C278.333 402.666 282.518 403.282 285.784 403.233Z"/>
	<path fill="#0B0166" transform="scale(0.5 0.5)" d="M402.818 425.733C408.537 425.695 414.289 426.109 420.002 426.368C420.041 436.644 420.211 446.846 419.247 457.085C417.362 458.072 415.681 458.834 413.549 459.153C407.476 460.061 401.068 459.494 394.938 459.381C387.986 459.253 381.03 459.28 374.077 459.288C373.727 461.832 373.571 464.436 373.452 467C373.322 469.824 372.404 475.907 374.254 477.933C376.758 478.525 380.36 476.681 382.935 476.289C392.05 474.902 402.65 477.315 410.06 482.825C419.232 489.645 423.577 500.647 425.132 511.659C427.228 526.501 425.213 543.388 415.905 555.606C407.706 566.367 395.604 571.133 382.522 572.761C364.545 574.999 347.622 571.684 333.207 560.441C327.859 556.47 324.152 551.454 320.261 546.148C332.107 539.769 344.607 534.499 356.664 528.502C357.047 529.092 357.446 529.672 357.855 530.244C362.828 537.194 369.131 540.029 377.405 541.361C378.863 540.925 380.432 540.526 381.674 539.609C384.684 537.384 386.275 533.522 386.687 529.907C387.222 525.216 386.243 520.324 383.145 516.655C380.411 513.416 376.25 511.337 372.029 511.014C366.736 510.609 363.153 513.06 359.421 516.415C349.942 516.763 340.449 516.719 330.964 516.756C332.055 508.089 331.801 498.862 332.066 490.122C332.691 469.466 332.859 448.664 334.072 428.039C335.921 427.139 337.602 426.472 339.66 426.219C346.897 425.329 354.801 425.843 362.106 425.894C375.67 425.99 389.26 426.209 402.818 425.733Z"/>
	<path fill="#801657" transform="scale(0.5 0.5)" d="M331.555 545.013C333.85 545.77 338.649 553.06 340.585 555.132C344.473 559.293 349.319 562.274 353.196 566.318L352.972 566.719L351.064 566.007C345.33 563.736 340.436 560.726 335.631 556.849C333.068 554.782 326.912 550.42 326.557 547.058C328.022 545.998 329.848 545.56 331.555 545.013Z"/>
	<path fill="#801657" transform="scale(0.5 0.5)" d="M338.595 429.608C340.514 429.526 342.263 429.385 344.131 429.894L344.475 430.68L344.243 431.1L344.507 431.134C344.725 440.207 343.508 510.701 341.882 513.611L334.968 513.125C335.295 504.484 338.008 431.032 338.595 429.608Z"/>
	<path fill="#ED5D60" transform="scale(0.5 0.5)" d="M348.267 429.668L416.005 430.006L416.001 454.474L370.375 454.494C369.958 464.527 369.324 474.544 368.961 484.587C370.091 484.096 371.225 483.613 372.377 483.173C382.023 479.478 392.836 478.311 402.416 482.807C410.67 486.68 416.07 493.892 418.964 502.368C423.744 516.366 423.383 533.787 416.646 547.09C411.347 557.553 402.328 563.768 391.392 567.362C385.109 569.032 378.271 569.301 371.862 568.269C355.749 565.674 344.907 556.158 335.699 543.248C342.34 540.195 348.583 536.863 354.719 532.865C360.374 538.43 365.703 542.899 373.684 544.515C378.511 545.493 383.662 545.334 387.837 542.444C391.871 539.652 393.979 535.04 394.727 530.31C395.75 523.842 394.93 516.245 390.966 510.88C388.509 507.555 385.063 505.454 380.955 504.912C372.252 503.765 364.672 507.815 357.959 512.858C354.248 512.653 350.534 512.568 346.818 512.473C345.792 484.882 348.372 457.253 348.267 429.668Z"/>
	<path fill="#0B0166" transform="scale(0.5 0.5)" d="M470.511 424.188C470.848 424.131 471.187 424.082 471.527 424.047C483.302 422.836 496.936 425.947 506.242 433.496C515.143 440.718 519.019 451.886 520.189 462.962C521.371 474.149 520.488 485.58 520.512 496.814C520.542 511.073 522.378 526.054 519.606 540.132C518.316 546.684 515.574 553.273 511.305 558.453C502.888 568.666 489.717 571.917 477.124 573.209C466.108 574.483 452.787 572.271 443.701 565.59C435.212 559.347 430.357 549.536 428.851 539.261C427.194 527.965 428.084 516.599 428.029 505.25C427.955 490.335 426.107 474.671 429.021 459.954C430.351 453.241 433.044 447.026 437.172 441.561C445.442 430.612 457.281 425.993 470.511 424.188Z"/>
	<path fill="#ED5D60" transform="scale(0.5 0.5)" d="M472.269 427.685C482.083 426.978 492.891 428.844 501.158 434.431C509.467 440.047 513.907 448.268 515.688 457.995C518.343 472.492 516.659 487.995 516.633 502.673C516.613 514.527 517.828 526.513 516.006 538.293C515.153 543.805 513.352 549.03 510.13 553.617C503.59 562.928 493.955 566.521 483.123 568.429C471.704 569.153 460.359 568.581 451.031 561.166C442.776 554.602 438.984 544.529 437.824 534.305C436.569 523.245 437.319 511.618 437.339 500.491C437.372 481.533 433.624 455.652 446.378 439.827C452.835 431.814 462.382 428.707 472.269 427.685Z"/>
	<path fill="#0B0166" transform="scale(0.5 0.5)" d="M475.219 450.091C478.732 449.941 482.378 450.299 485.463 452.119C488.556 453.945 489.778 456.368 490.582 459.765C493.455 471.894 492.262 485.569 492.358 498.006C492.436 508.203 492.995 518.626 492.027 528.784C491.638 532.874 491.265 537.666 488.992 541.189C486.765 544.641 483.594 546.636 479.625 547.522C475.606 547.59 471.628 547.676 468.194 545.208C464.413 542.491 463.173 537.857 462.352 533.513C460.018 521.171 461.374 507.625 461.378 495.08C461.38 485.033 460.576 474.588 462.033 464.626C462.509 461.376 463.321 458.221 465.272 455.513C467.765 452.053 471.175 450.85 475.219 450.091Z"/>
	<path fill="#FAA15C" transform="scale(0.5 0.5)" d="M472.424 454.502C473.89 454.467 475.38 454.404 476.811 454.783C478.778 455.305 480.318 456.513 481.32 458.289C484.316 463.605 483.815 521.68 483.293 530.503C483.09 533.949 482.754 537.159 481.797 540.483C480.223 541.979 478.928 543.196 476.923 544.105C474.076 543.639 471.428 542.915 469.403 540.717C467.09 538.206 466.443 534.693 465.986 531.424C464.676 522.056 465.494 512.339 465.467 502.899C465.435 492.032 464.85 481.027 465.543 470.181C465.996 463.088 466.988 459.263 472.424 454.502Z"/>
	<path fill="#0B0166" transform="scale(0.5 0.5)" d="M571.52 424.21C571.707 424.186 571.893 424.156 572.08 424.139C584.681 423.018 598.978 425.741 608.974 433.884C618.314 441.493 622.751 452.546 623.939 464.28C624.989 474.656 624.43 485.232 624.51 495.654C624.671 516.585 627.763 540.489 613.465 557.872C604.98 568.188 592.279 572.46 579.388 573.707C579.186 573.734 578.984 573.764 578.782 573.788C565.9 575.295 551.119 573.346 540.733 564.991C532.086 558.036 527.828 548.356 526.679 537.476C525.514 526.442 526.519 515.373 526.528 504.312C526.54 489.744 524.732 473.824 527.715 459.496C529.14 452.649 531.807 446.326 536.264 440.895C544.929 430.335 558.276 425.532 571.52 424.21Z"/>
	<path fill="#ED5D60" transform="scale(0.5 0.5)" d="M572.404 427.689C582.51 426.304 594.904 428.878 603.489 434.434C612.224 440.086 617.431 449.268 619.461 459.324C621.734 470.586 620.461 482.493 620.484 493.922C620.513 507.575 621.996 522.071 619.641 535.565C618.595 541.561 616.454 547.315 613.051 552.381C606.305 562.425 596.987 566.182 585.531 568.413C573.739 569.212 561.298 568.485 551.481 561.163C542.476 554.447 537.525 544.067 535.969 533.127C534.271 521.179 535.436 508.239 535.495 496.174C535.557 483.676 534.246 470.103 536.671 457.825C537.799 452.114 540.116 446.557 543.638 441.902C550.587 432.715 561.437 429.218 572.404 427.689Z"/>
	<path fill="#0B0166" transform="scale(0.5 0.5)" d="M575.116 449.712C578.734 449.65 581.963 449.873 585.394 451.218C588.517 452.441 592.166 455.088 593.423 458.325C596.593 466.488 596.179 516.886 595.28 527.922C595.017 531.156 594.577 535.314 593.06 538.202C590.82 542.465 586.623 544.07 582.308 545.491C577.322 545.607 572.06 545.686 567.645 542.991C565.017 541.387 563.794 539.728 563.085 536.741C560.849 527.315 559.917 462.755 563.919 456.331C566.441 452.284 570.716 450.753 575.116 449.712Z"/>
	<path fill="#ED5D60" transform="scale(0.5 0.5)" d="M573.53 455.559C575.7 455.562 577.989 456.004 580.025 456.75C582.581 457.687 584.784 459.368 585.766 461.975C587.553 466.722 587.563 532.307 585.505 536.946C584.327 539.6 581.88 540.324 579.319 541.16C576.835 541.337 574.63 541.213 572.245 540.426C570.164 539.739 567.878 538.525 566.947 536.417C564.629 531.166 564.548 462.89 566.934 459.223C568.164 457.332 571.508 456.339 573.53 455.559Z"/>
</svg>
