<!-- icon666.com - MILLIONS vector ICONS FREE --><svg id="Layer_1" enable-background="new 0 0 250 250" viewBox="0 0 250 250" xmlns="http://www.w3.org/2000/svg"><g clip-rule="evenodd" fill-rule="evenodd"><path d="m250.4 124.9c0 68.9-55.6 124.7-124.4 125h-.1-.9c-1 0-1.9 0-2.9 0-67.5-1.8-121.7-57-121.7-125s54.2-123.2 121.7-124.9h2.9.8.1c68.9.2 124.5 56.1 124.5 124.9z" fill="#0bcd74"></path><path d="m196.4 155.5-36.9-18.3-4.5 9.2 34.4 17c2 1 2.4 3.6.9 5.2l-19.5 19.4c-.5.5-1.1 1-1.8 1.4-1.1.7-2.3 1.1-3.5 1.2-1 .1-2.3.2-4 .3-7.7-.5-20.6-2.8-36-11.2-9.9-5.3-20.8-13.1-32.1-24.4-8.4-8.4-14.9-16.4-19.9-23.9-12.1-19.5-14.6-35.7-15-44.1-.1-2.9 1-5.7 3-7.7l19.4-19.4c1.6-1.6 4.2-1.1 5.2.9l17 34.4 9.2-4.5-18.4-36.8c-3.5-7-12.8-8.5-18.4-3l-23.7 23.7c-3.5 3.5-5.1 8.5-4.4 13.4 2.4 14.7 10.6 47.1 39.6 76.1 13.1 13.1 26.5 21.6 38.4 27.2 13 6 24.4 8.5 32 9.6 1.6.3 3.2.6 4.8.9 4.9.8 9.9-.8 13.4-4.4l23.8-23.7c5.5-5.6 4-15-3-18.5zm-71-11.7c-3.5-2.8-7.2-6-10.8-9.6-15.8-15.8-23.7-31.7-23.7-31.7l-10.4 3.8s10.7 18.8 26.9 35c5.9 5.9 12.2 11.2 17.9 15.5 10 7.5 18 12.2 18 12.2l4.5-10.5s-10.4-5.1-22.4-14.7z" fill="#fff"></path><path d="m250.4 124.9c0 68.9-55.6 124.7-124.4 125h-.1-.4v-250h.4.1c68.8.3 124.4 56.2 124.4 125z" fill="#02ba62"></path><g fill="#e1e1e1"><path d="m143.4 168.9s-8-4.6-18-12.2v-13c12 9.6 22.4 14.7 22.4 14.7z"></path><path d="m199.4 173.9-23.8 23.7c-3.5 3.5-8.5 5.1-13.4 4.4-1.6-.3-3.2-.5-4.8-.9-7.6-1-18.9-3.5-32-9.6v-11.8c15.5 8.3 28.3 10.6 36 11.2 1.7 0 3.1-.2 4-.3 1.2-.2 2.5-.5 3.5-1.2.6-.4 1.2-.9 1.8-1.4l19.4-19.4c1.6-1.6 1.1-4.2-.9-5.2l-34.4-17 4.5-9.2 36.9 18.3c7.2 3.5 8.7 12.9 3.2 18.4z"></path></g></g></svg>